<?xml version="1.0" encoding="iso-8859-1"?>
<!-- Generator: Adobe Illustrator 13.0.2, SVG Export Plug-In . SVG Version: 6.00 Build 14948)  -->
<!DOCTYPE svg PUBLIC "-//W3C//DTD SVG 1.1//EN" "http://www.w3.org/Graphics/SVG/1.1/DTD/svg11.dtd">
<svg version="1.1" id="violin_xA0_Image_1_" xmlns="http://www.w3.org/2000/svg" xmlns:xlink="http://www.w3.org/1999/xlink"
	 x="0px" y="0px" width="221.04px" height="72px" viewBox="0 0 221.04 72" enable-background="new 0 0 221.04 72"
	 xml:space="preserve">
<g>
	<path fill-rule="evenodd" clip-rule="evenodd" d="M119.52,12.24c0.32,0,0.64,0,0.96,0c0.102,0.501-0.164,0.635-0.24,0.96
		C119.608,13.272,119.453,12.868,119.52,12.24z"/>
	<path fill-rule="evenodd" clip-rule="evenodd" d="M121.44,12.72c0.422,0.058,0.547,0.413,0.48,0.96
		C121.501,13.463,120.996,13.143,121.44,12.72z"/>
	<path fill-rule="evenodd" clip-rule="evenodd" d="M122.64,12.72c0.903,0.057,0.936,0.984,1.2,1.68
		C122.929,14.351,123.009,13.311,122.64,12.72z"/>
	<path fill-rule="evenodd" clip-rule="evenodd" d="M126,12.96c1.084,0.755,0.961,2.718,1.68,3.84
		C126.504,16.136,126.267,14.533,126,12.96z"/>
	<path fill-rule="evenodd" clip-rule="evenodd" d="M124.56,13.2c0.979,0.22,1.059,1.341,1.2,2.4
		C125.014,15.146,124.832,14.129,124.56,13.2z"/>
	<path fill-rule="evenodd" clip-rule="evenodd" d="M200.64,16.32c-0.982,0.811-1.886-0.505-2.64-0.72
		C198.424,14.666,199.889,16.066,200.64,16.32z"/>
	<path fill-rule="evenodd" clip-rule="evenodd" d="M196.8,16.56c0.006-0.233,0.294-0.187,0.479-0.24
		c1.677,0.803,3.618,1.342,4.8,2.64C200.122,18.358,198.666,17.254,196.8,16.56z"/>
	<path fill-rule="evenodd" clip-rule="evenodd" d="M196.32,17.52c0.538,0.263,1.203,0.397,1.681,0.72
		C197.82,18.559,196.133,18.362,196.32,17.52z"/>
	<path fill-rule="evenodd" clip-rule="evenodd" d="M198.24,18.72c1.485-0.123,3.739,1.059,4.8,2.16
		C201.176,20.424,199.934,19.346,198.24,18.72z"/>
	<path fill-rule="evenodd" clip-rule="evenodd" d="M196.32,19.44c0.783-0.983,1.729,0.369,2.4,0.72
		c1.435,0.75,4.165,0.938,4.319,2.64C201.156,21.324,198.614,20.507,196.32,19.44z"/>
	<path fill-rule="evenodd" clip-rule="evenodd" d="M196.32,20.88c1.222-0.153,2.765,0.628,4.08,1.2
		c1.285,0.558,2.883,1.169,3.601,2.16C201.25,23.309,198.838,22.041,196.32,20.88z"/>
	<path fill-rule="evenodd" clip-rule="evenodd" d="M196.32,22.08c3.016,0.745,5.475,2.045,7.92,3.36
		c-1.052,0.797-2.547-0.858-3.84-1.44C198.935,23.34,197.017,23.33,196.32,22.08z"/>
	<path fill-rule="evenodd" clip-rule="evenodd" d="M126.24,24c0.092-0.457,0.306,0.153,0.24,0.48
		C126.388,24.937,126.174,24.327,126.24,24z"/>
	<path fill-rule="evenodd" clip-rule="evenodd" d="M135.12,28.08c0.97,0.401,0.121,1.673,1.44,0.72c0.269,1.069-0.737,0.863-1.2,1.2
		c0.216,0.904,0.299,1.941,0.72,2.64c-0.213-0.187-0.542-0.258-0.96-0.24C134.883,30.371,135.238,29.41,135.12,28.08z"/>
	<path fill-rule="evenodd" clip-rule="evenodd" d="M134.16,28.56c0.276-0.776,0.272,0.645,0.24,0.96
		C134.124,30.296,134.128,28.875,134.16,28.56z"/>
	<path fill-rule="evenodd" clip-rule="evenodd" d="M194.64,28.32c0.16,0,0.32,0,0.479,0c0,0.16,0,0.32,0,0.48
		c-0.159,0-0.319,0-0.479,0C194.64,28.64,194.64,28.48,194.64,28.32z"/>
	<path fill-rule="evenodd" clip-rule="evenodd" d="M195.6,28.32c0.16,0,0.32,0,0.479,0c0,0.16,0,0.32,0,0.48
		c-0.159,0-0.319,0-0.479,0C195.6,28.64,195.6,28.48,195.6,28.32z"/>
	<path fill-rule="evenodd" clip-rule="evenodd" d="M11.76,30c0.062-0.562,1.054-0.138,1.2,0C12.756,30.704,12.356,29.688,11.76,30z"
		/>
	<path fill-rule="evenodd" clip-rule="evenodd" d="M178.08,32.64c0.17,0.894,0.556,3-0.479,3.12
		C177.458,34.419,178.15,33.91,178.08,32.64z"/>
	<path fill-rule="evenodd" clip-rule="evenodd" d="M179.52,32.88c0.196,0.212,0.084,2.153-0.24,2.64
		C178.341,35.391,179.583,33.691,179.52,32.88z"/>
	<path fill-rule="evenodd" clip-rule="evenodd" d="M176.64,33.12c0.664,0.209,0.178,2.711-0.48,3.12
		C175.926,34.807,176.725,34.405,176.64,33.12z"/>
	<path fill-rule="evenodd" clip-rule="evenodd" d="M130.56,33.6c0.176-0.427,0.437-0.035,0.72,0c0.518,2.123,2.055,3.225,2.4,5.52
		c-0.848-0.498-1.24-1.756-1.68-2.64C131.528,35.53,131.053,34.527,130.56,33.6z"/>
	<path fill-rule="evenodd" clip-rule="evenodd" d="M137.04,33.36c1.379,1.022,1.949,2.851,2.4,4.8
		C138.522,36.678,137.626,35.174,137.04,33.36z"/>
	<path fill-rule="evenodd" clip-rule="evenodd" d="M129.36,33.84c1.271,1.529,2.347,3.253,2.88,5.521
		C131.024,37.776,129.974,36.026,129.36,33.84z"/>
	<path fill-rule="evenodd" clip-rule="evenodd" d="M132.72,33.84c1.277,1.068,2.328,3.557,2.399,5.04
		C134.241,37.279,133.152,35.888,132.72,33.84z"/>
	<path fill-rule="evenodd" clip-rule="evenodd" d="M195.36,34.08c0.537,0.104,0.098,1.183,0.24,1.68
		C194.329,35.753,195.371,34.826,195.36,34.08z"/>
	<path fill-rule="evenodd" clip-rule="evenodd" d="M192,34.32c0,0.32,0,0.64,0,0.96C191.052,35.446,191.214,34.27,192,34.32z"/>
	<path fill-rule="evenodd" clip-rule="evenodd" d="M12.48,34.56c1.136-0.332,1.452,0.877,0.96,1.44
		C12.42,36.22,12.415,35.425,12.48,34.56z"/>
	<path fill-rule="evenodd" clip-rule="evenodd" d="M184.32,34.56c0.102,0.501-0.164,0.635-0.24,0.96
		C183.384,35.477,183.501,34.379,184.32,34.56z"/>
	<path fill-rule="evenodd" clip-rule="evenodd" d="M188.88,34.56c0.159,0,0.319,0,0.479,0c0,0.16,0,0.32,0,0.48
		c-0.16,0-0.32,0-0.479,0C188.88,34.88,188.88,34.72,188.88,34.56z"/>
	<path fill-rule="evenodd" clip-rule="evenodd" d="M126.72,35.28c1.383,1.017,1.915,2.885,2.64,4.56
		C128.056,38.743,127.654,36.746,126.72,35.28z"/>
	<path fill-rule="evenodd" clip-rule="evenodd" d="M128.88,35.28c0.538,0.262,0.422,1.178,0.96,1.44
		C129.42,37.278,128.719,36.097,128.88,35.28z"/>
	<path fill-rule="evenodd" clip-rule="evenodd" d="M125.76,36c0.836,1.403,1.786,2.694,1.92,4.8
		C126.755,39.613,125.792,37.291,125.76,36z"/>
	<path fill-rule="evenodd" clip-rule="evenodd" d="M124.08,36.24c1.186,1.295,1.746,3.214,2.4,5.04
		c-0.949-0.371-1.018-1.735-1.44-2.641C124.652,37.81,123.628,37.077,124.08,36.24z"/>
	<path fill-rule="evenodd" clip-rule="evenodd" d="M141.6,36.24c0.75-0.11,0.768,0.513,0.72,1.2
		C141.899,37.221,141.486,36.994,141.6,36.24z"/>
	<path fill-rule="evenodd" clip-rule="evenodd" d="M122.4,36.72c1.03,1.129,1.63,2.69,2.16,4.32
		C123.497,40.07,122.254,38.11,122.4,36.72z"/>
	<path fill-rule="evenodd" clip-rule="evenodd" d="M200.64,42.48c-1.769-1.673-3.185-3.695-5.28-5.04
		c0.569-0.834,1.491,0.586,2.16,1.199C198.632,39.662,200.178,40.74,200.64,42.48z"/>
	<path fill-rule="evenodd" clip-rule="evenodd" d="M120.96,37.44c1.312,0.207,0.937,2.103,1.439,3.119
		C121.588,39.852,121.163,38.758,120.96,37.44z"/>
	<path fill-rule="evenodd" clip-rule="evenodd" d="M119.76,37.68c0.885,1.305,2.019,3.542,1.92,5.04
		C120.803,41.407,119.901,38.939,119.76,37.68z"/>
	<path fill-rule="evenodd" clip-rule="evenodd" d="M113.52,37.92c1.84,1.521,2.383,4.338,3.6,6.48
		C115.3,42.859,114.701,40.1,113.52,37.92z"/>
	<path fill-rule="evenodd" clip-rule="evenodd" d="M106.8,38.16c0.848,2.111,1.933,3.987,2.88,6
		C108.224,42.655,107.023,40.897,106.8,38.16z"/>
	<path fill-rule="evenodd" clip-rule="evenodd" d="M108.48,38.16c0.322,0.158,0.447,0.513,0.48,0.96
		C108.538,39.062,108.413,38.707,108.48,38.16z"/>
	<path fill-rule="evenodd" clip-rule="evenodd" d="M111.84,38.16c0.868,1.691,1.797,3.322,2.399,5.28
		C112.652,42.604,112.029,39.604,111.84,38.16z"/>
	<path fill-rule="evenodd" clip-rule="evenodd" d="M117.6,38.16c0.388-0.067,0.413,0.227,0.72,0.24
		c0.139,2.021,1.664,2.655,1.92,4.56C118.91,41.811,118.397,39.843,117.6,38.16z"/>
	<path fill-rule="evenodd" clip-rule="evenodd" d="M194.88,38.16c1.085,0.35,1.823,1.529,2.64,2.399
		c0.769,0.819,2.03,1.648,1.92,2.641c-0.725-0.517-1.069-1.302-1.68-1.92C196.899,40.408,195.588,39.48,194.88,38.16z"/>
	<path fill-rule="evenodd" clip-rule="evenodd" d="M104.88,38.4c0.77,0.271,0.68,1.399,0.96,2.159
		C105.07,40.289,105.16,39.16,104.88,38.4z"/>
	<path fill-rule="evenodd" clip-rule="evenodd" d="M130.08,38.64c0.098-0.598,0.931-0.014,0.721,0.48
		C130.268,39.252,130.458,38.662,130.08,38.64z"/>
	<path fill-rule="evenodd" clip-rule="evenodd" d="M142.56,38.4c0.663,0.141,1.002,1.327,0.72,1.68
		C142.699,39.861,142.644,39.115,142.56,38.4z"/>
	<path fill-rule="evenodd" clip-rule="evenodd" d="M101.28,38.64c1.203,0.717,1.061,2.78,1.68,4.08
		C101.838,42.041,101.506,39.43,101.28,38.64z"/>
	<path fill-rule="evenodd" clip-rule="evenodd" d="M103.44,38.64c0.929,0.432,0.314,2.406,0.96,3.12
		C103.618,42.134,103.802,39.484,103.44,38.64z"/>
	<path fill-rule="evenodd" clip-rule="evenodd" d="M139.44,38.64c0.304,0.416,0.812,0.629,0.72,1.44
		C139.102,40.418,139.51,39.29,139.44,38.64z"/>
	<path fill-rule="evenodd" clip-rule="evenodd" d="M197.28,42.24c-1.334-0.108-2.315-2.642-4.08-3.12
		C194.247,38.14,196.321,41.185,197.28,42.24z"/>
	<path fill-rule="evenodd" clip-rule="evenodd" d="M162,39.12c0.902,0.057,0.936,0.984,1.199,1.68
		C162.603,40.438,162.103,39.978,162,39.12z"/>
	<path fill-rule="evenodd" clip-rule="evenodd" d="M193.2,40.08c1.868,1.492,3.676,3.045,4.801,5.28
		c-1.423-0.658-1.99-2.171-2.881-3.36C194.19,41.649,193.286,41.274,193.2,40.08z"/>
	<path fill-rule="evenodd" clip-rule="evenodd" d="M200.88,40.08c0.314,0.085,0.377,0.423,0.72,0.479
		c0.044,0.204-0.094,0.227-0.24,0.24c-0.16,0-0.32,0-0.479,0C200.88,40.56,200.88,40.32,200.88,40.08z"/>
	<path fill-rule="evenodd" clip-rule="evenodd" d="M100.08,40.32c0.632-0.072,0.788,0.332,0.72,0.96
		c-0.627,0.067-1.032-0.088-0.96-0.721C100.044,40.604,100.066,40.467,100.08,40.32z"/>
	<path fill-rule="evenodd" clip-rule="evenodd" d="M122.4,40.8c0.51,0.24,1.163,0.969,0.72,1.44
		C122.377,42.263,122.405,41.516,122.4,40.8z"/>
	<path fill-rule="evenodd" clip-rule="evenodd" d="M18.72,41.04c-0.422,0.908-2.037,0.493-2.16,0.479
		C15.254,41.382,18.123,41.283,18.72,41.04z"/>
	<path fill-rule="evenodd" clip-rule="evenodd" d="M152.4,41.28c0.593-0.577,0.982,1.085,1.2,1.68
		C152.819,42.781,152.871,41.77,152.4,41.28z"/>
	<path fill-rule="evenodd" clip-rule="evenodd" d="M13.44,41.52c0.181-0.318,2.346-0.602,2.16,0.24
		C14.671,41.889,14.428,41.332,13.44,41.52z"/>
	<path fill-rule="evenodd" clip-rule="evenodd" d="M151.2,41.76c0.695,0.345,0.99,1.091,1.2,1.92
		C151.489,43.552,151.342,42.657,151.2,41.76z"/>
	<path fill-rule="evenodd" clip-rule="evenodd" d="M154.32,41.76c0.475,0.166,0.64,0.641,0.72,1.2
		C154.566,42.794,154.4,42.32,154.32,41.76z"/>
	<path fill-rule="evenodd" clip-rule="evenodd" d="M191.28,42.48c-0.32,0.683-1.067-0.186-1.439-0.24
		C190.169,41.199,190.829,42.259,191.28,42.48z"/>
	<path fill-rule="evenodd" clip-rule="evenodd" d="M192.48,41.76c0.396,0.323,0.826,0.613,0.96,1.2
		C192.912,42.769,192.482,42.479,192.48,41.76z"/>
	<path fill-rule="evenodd" clip-rule="evenodd" d="M101.52,42c0.403,1.139-1.381,1.323-1.2,0.24
		C100.599,42.039,100.963,41.924,101.52,42z"/>
	<path fill-rule="evenodd" clip-rule="evenodd" d="M189.12,42.96c1.531,0.309,1.956,1.725,2.881,2.64
		C191.003,45.712,189.725,44.039,189.12,42.96z"/>
	<path fill-rule="evenodd" clip-rule="evenodd" d="M153.36,43.2c0.817-0.178,0.396,0.884,0.96,0.96
		C153.918,44.851,153.348,43.715,153.36,43.2z"/>
	<path fill-rule="evenodd" clip-rule="evenodd" d="M191.76,43.2c1.061,0.858,2.074,1.765,2.64,3.12
		C193.476,45.324,192.092,44.788,191.76,43.2z"/>
	<path fill-rule="evenodd" clip-rule="evenodd" d="M197.76,43.44c0.632-0.073,0.787,0.332,0.72,0.96
		C198.128,44.191,197.719,44.041,197.76,43.44z"/>
	<path fill-rule="evenodd" clip-rule="evenodd" d="M104.88,43.92c-0.095-0.466,1.093-0.351,0.72,0.24c-0.16,0-0.32,0-0.48,0
		C105.164,43.956,105.026,43.934,104.88,43.92z"/>
	<path fill-rule="evenodd" clip-rule="evenodd" d="M185.52,43.68c1.614,0.627,2.733,1.746,3.36,3.36
		C187.571,46.109,186.234,45.207,185.52,43.68z"/>
	<path fill-rule="evenodd" clip-rule="evenodd" d="M187.68,43.68c1.613,0.627,2.733,1.746,3.359,3.36
		C189.573,46.268,188.876,44.724,187.68,43.68z"/>
	<path fill-rule="evenodd" clip-rule="evenodd" d="M111.6,44.16C111.034,44.932,110.63,43.316,111.6,44.16L111.6,44.16z"/>
	<path fill-rule="evenodd" clip-rule="evenodd" d="M183.84,43.92c1.505,0.458,2.63,1.826,3.6,2.88c0.96,1.043,2.267,2.31,2.64,3.84
		c-1.149,0.053-1.189-1.08-1.68-1.68C186.959,47.196,185.13,45.829,183.84,43.92z"/>
	<path fill-rule="evenodd" clip-rule="evenodd" d="M168.96,44.4c1.365,0.759,2.351,2.272,3.359,3.6
		c0.938,1.234,2.178,2.541,2.4,3.84C172.318,49.843,170.932,46.828,168.96,44.4z"/>
	<path fill-rule="evenodd" clip-rule="evenodd" d="M182.64,44.4c2.02,1.82,3.779,3.9,5.04,6.479c-2.321-1.039-2.537-4.183-4.8-5.28
		C182.999,44.847,182.052,44.966,182.64,44.4z"/>
	<path fill-rule="evenodd" clip-rule="evenodd" d="M171.12,44.64c2.484,2.076,4.206,4.914,6,7.681
		C174.737,50.143,172.758,47.562,171.12,44.64z"/>
	<path fill-rule="evenodd" clip-rule="evenodd" d="M181.68,48c-0.865,0.298-1.594-1.601-2.4-2.16c-0.272,2.354,2.757,3.482,3.12,6
		c-2.062-1.777-3.41-4.27-4.8-6.72c0.654-0.175,0.483,0.477,0.96,0.479C180.164,43.693,180.417,47.393,181.68,48z"/>
	<path fill-rule="evenodd" clip-rule="evenodd" d="M181.44,45.12c1.315,0.489,2.407,2.315,3.36,3.6
		c0.771,1.04,1.534,1.945,1.92,3.12c-1.71-0.54-2.101-2.557-3.12-3.84C182.899,47.118,181.889,46.564,181.44,45.12z"/>
	<path fill-rule="evenodd" clip-rule="evenodd" d="M174,45.36c0.387-0.068,0.413,0.227,0.72,0.239
		c0.573,1.122,1.658,2.185,2.399,3.36c0.714,1.133,1.518,2.35,1.681,3.36c-1.09-0.431-0.991-2.05-2.16-2.4
		C176.256,47.903,174.45,47.311,174,45.36z"/>
	<path fill-rule="evenodd" clip-rule="evenodd" d="M161.76,46.08c1.919,0.641,2.74,2.38,3.359,4.32
		c-1.186-0.335-1.297-1.744-1.92-2.641C163.034,46.887,161.621,47.259,161.76,46.08z"/>
	<path fill-rule="evenodd" clip-rule="evenodd" d="M176.88,46.56c1.398,1.722,2.899,3.341,3.84,5.521
		c-1.002-0.542-1.467-1.929-2.16-2.88C177.893,48.286,176.681,47.572,176.88,46.56z"/>
	<path fill-rule="evenodd" clip-rule="evenodd" d="M195.12,47.28c0.296,0.104,0.493,0.307,0.48,0.72
		C195.304,47.896,195.107,47.693,195.12,47.28z"/>
	<path fill-rule="evenodd" clip-rule="evenodd" d="M164.88,47.52c0.975,0.673,2.24,2.176,1.92,3.36
		C165.696,50.224,165.269,48.891,164.88,47.52z"/>
	<path fill-rule="evenodd" clip-rule="evenodd" d="M192,47.52c0.841,0.199,1.123,0.957,1.439,1.681
		C192.532,49.068,192.051,48.508,192,47.52z"/>
	<path fill-rule="evenodd" clip-rule="evenodd" d="M160.32,47.76c0.687,0.063,1.051,1.081,0.72,1.44
		C160.312,49.208,160.442,48.358,160.32,47.76z"/>
	<path fill-rule="evenodd" clip-rule="evenodd" d="M92.4,49.2c0.742-0.022,0.715,0.725,0.72,1.439
		C92.392,50.647,92.522,49.798,92.4,49.2z"/>
	<path fill-rule="evenodd" clip-rule="evenodd" d="M180.96,60.96c1.002,0.16,0.111,1.49-0.48,0.72
		C180.565,61.365,180.903,61.303,180.96,60.96z"/>
	<path fill-rule="evenodd" clip-rule="evenodd" d="M207.84,37.68c-0.772,1.029,1.008,2.44-0.24,3.36
		c0.682,0.686,0.346-0.873,1.439-0.48c0.182,4.4-1.854,9.586-3.84,13.2c-1.362,2.479-2.409,4.901-4.56,6.721
		c-1.027,0.869-2.487,1.574-3.601,2.399c-5.285,3.92-13.795,6.122-22.319,4.32c-3.469-0.733-6.399-2.044-9.601-3.36
		c-0.906-0.373-1.927-0.955-2.88-1.2c-2.599-0.668-5.279,0.269-7.68,0c-0.378-0.716-0.811-1.642-0.48-2.399
		c-1.26-4.169-7.267-7.162-12.239-8.4c-4.827-1.201-12.497-0.665-15.12,3.36c1.223,2.863-2.168,3.885-3.601,2.16
		c-6.364-1.29-14.618,3.472-22.56,1.439c-1.216-0.311-3.086-1.225-4.56-1.92c-4.35-2.052-8.206-5.876-9.6-11.04
		c-0.213-0.788-0.091-1.633-0.24-2.399c-0.175-0.899-0.787-2.465-0.48-4.32c-0.446-0.834-1.594-0.967-2.4-1.44
		c0-0.72,0-1.439,0-2.16c-0.503-1.737-1.45-3.03-2.64-4.08c-6.955-0.2-18.562-0.48-28.08-0.48c-2.865,0-6.046-0.477-7.68,0
		c-2.322,0.678-1.893,3.81-3.12,5.52c-1.6,0-3.2,0-4.8,0c-0.729-0.359-0.132-0.722-0.48-1.2c-1.514,1.277-0.238,7.217-3.84,5.28
		c0.054-0.346,0.716-0.083,0.72-0.479c-1.155-0.846-1.629-2.371-1.44-4.56c0.605-1.075,2.253-1.107,2.64-2.4
		c-0.257-0.973-1.184-0.742-0.96-1.68c-2.501,0.253-0.269-0.567,0.96-0.72c2.081-0.259,5.926,0.614,6.48,0
		c-1.151-1.693-3.885-1.088-6.24-0.96c-1.04-0.657,0.363-1.184-0.24-1.92c-1.172,0.373-0.607,1.281-0.96,2.16
		c-7.676,0.724-11.74,5.06-17.52,7.68c4.337,0.097,6.759-3.8,11.04-4.56c-0.236,0.324-0.641,0.479-0.96,0.72
		c-0.043,0.524,0.196,0.764,0.72,0.72c-0.708,0.154-1.017,1.503-0.48,2.16c1.352,0.429,0.851-0.945,2.16,0
		c0.603-0.597-0.153-2.554,0.72-2.88c-0.849-0.729-1.192,0.584-1.92,0.72c-0.226-1.091,0.795-2.838,2.64-2.64
		c0.156,0.956-1.416,0.184-1.2,1.2c1.312,1.31,3.966-0.846,4.32,0c0.194,0.464,0.073,1.309-1.68,1.2
		c-0.305,0.895-0.984,1.417-0.72,2.88c-2.747,0.053-4.577,1.023-6,2.399c1.009,0.567,0.446,1.258,0.48,2.641
		c0.932,0.12,0.924-1.939,0.48-2.4c0.867-0.399,1.262,2.535,0.72,3.601c-3.396,2.056-5.292-1.33-6.96-3.12
		c-5.834,1.455-12.026-0.513-11.28-7.2c1.032-0.692,2.497-2.083,3.84-1.68c-0.349,1.171-2.069,0.971-2.64,1.92
		c-0.771,3.095,2.066,4.598,4.32,4.32c3.647-0.449,3.887-6.186,0.24-6.959c0.332-0.388,0.849-0.591,0.72-1.44
		c-0.77-0.47-2.643-0.562-3.84-0.48c-0.978,0.067-2.523,0.22-2.64,0.96c0.585,0.647,1.564-0.341,2.64,0
		c-0.47,0.856-1.315,0.585-1.92,0.96c-2.151,1.333-2.074,4.311-1.44,6.48c-1.896-2.464-0.371-5.89,0.48-8.64
		c0.846-0.881,1.751-1.27,3.36-1.92c0.922-0.373,1.271-0.912,1.92-0.96c2.4-0.18,4.635,1.507,5.52,3.6
		c1.479-2.087,5.266-5.77,7.2-1.92c1.366-0.554,2.442-1.398,4.08-1.68c0.323-1.764-0.72-2.16-1.2-3.12
		c-0.136-4.155,4.979-2.401,5.76-0.24c0.074,0.875-0.038,1.562-0.24,2.16c0.644,0.526,2.442-0.828,3.36,0
		c1.416,0.084-0.121,0.719,0.48,1.2c0.278-0.202,0.643-0.317,1.2-0.24c1.089-0.298-0.415-0.698,0.24-1.2
		c3.626-0.89,8.403-1.06,12-0.72c4.646-1.455,11.802-1.256,17.52-1.68c6.534-0.484,12.235-1.177,18.96-1.44
		c1.056-0.784,1.274-2.405,1.44-4.08c-0.742,1.098-1.06,2.621-1.68,3.84c-1.07-1.794,1.662-3.718,1.68-6
		c0.975-0.553,1.039-1.674,1.68-2.4c3.006-3.405,10.037-5.89,15.6-6.48c3.234-0.343,6.288,0.224,9.121,0.72
		c3.831,0.671,7.969,2.082,11.04,1.68c1.324-0.173,2.293-1.197,3.6-0.96c1.044,0.673,0.266,1.894,0.72,2.88
		c2.769,5.293,15.117,5.247,22.08,2.64c2.812-1.053,4.608-2.997,5.76-4.56c-0.021-1.026-0.48-1.758,0-2.64
		c5.114,1.001,11.741-0.042,16.801-1.68c0.557-0.077,0.921,0.039,1.199,0.24c5.828-1.769,14.53-0.901,19.44,1.44
		c0.68,0.324,1.228,1.024,1.92,1.44c2.596,1.559,4.035,2.579,6.24,5.52c2.556,3.409,3.805,6.801,4.08,12
		c0.126,2.38,0.571,5.081-0.24,7.2c-0.863,0.743-0.606-1.171-1.92-0.72c0.187,1.094,1.188,1.372,1.68,2.16c0-0.32,0-0.64,0-0.96
		c0.575,0.632,0.931,2.74,0.72,3.36c0.354,0.825,1.306,0.76,1.681,1.68C212.135,40.196,207.556,41.261,207.84,37.68z M35.04,32.64
		c0.407-0.233,0.617-0.664,0.48-1.44c-0.561,0.079-0.992,0.288-1.44,0.48C34.109,32.291,34.429,32.611,35.04,32.64z M25.92,29.04
		c0.789-1.735,3.547-0.586,4.08-2.88C28.212,26.535,25.624,27.381,25.92,29.04z M199.92,9.12c-0.223-0.418,0.008-1.288-0.721-1.2
		c-5.685-4.073-12.294-5.163-20.16-4.08c-0.409,0.057-0.793,0.401-1.199,0.48c-3.477,0.676-7.262,1.406-10.561,1.92
		c-2.756,0.429-4.778,0.187-6.96-0.24c-0.541,1.458-1.143,2.857-1.92,4.08c-2.839,2.266-7.085,4.007-12,4.32
		c-0.966,0.062-1.929-0.101-2.88,0c-1.929,0.206-2.617,0.178-4.32,0c-0.697-0.073-1.591,0.12-2.16,0
		c-1.636-0.343-2.993-1.724-4.56-1.68c-0.893-1.507-2.438-2.362-2.16-5.04c-2.144,0.282-3.98,0.881-6,0.72
		c-1.732-0.138-3.546-1.336-5.04-0.24c4.108,1.188,6.845,1.378,10.32,0.72c-0.613,0.939-0.111,1.884,0.479,2.64
		c0.563,0.72,2.242,1.711,3.601,2.4c2.695,1.367,4.816,1.625,7.92,1.68c1.297,0.023,2.921,0.142,4.08,0
		c3.046-0.373,5.661-2.157,8.16-1.92c1.027-1.538,3.192-1.318,4.56-2.4c0.243-0.192,0.373-0.811,0.72-1.2
		c0.899-1.01,1.663-1.49,1.92-2.88c4.419,1.297,8.771-0.645,11.761-1.44c2.368-0.63,5.133-0.875,7.68-1.2
		c7.894-1.009,13.906,1.375,19.2,4.56c1.834,1.605,3.163,3.717,5.04,5.28C203.334,12.425,202.398,10.002,199.92,9.12z M197.76,24.96
		c0.087-1.207-2.101-0.14-1.681-1.68c2.57,1.271,5.809,1.872,7.681,3.84c-1.575-0.322-4.227-2.472-5.28-1.68
		c1.512,0.648,3.238,1.082,4.08,2.4c1.841-0.081,2.796,0.724,4.08,1.2c0.142-1.904,0.165-3.849,0-6
		c-0.545-7.097-5.373-12.44-10.8-15.12c-2.738-1.352-6.032-2.403-9.84-2.64c-9.363-0.582-15.217,3.256-24,2.88
		c-4.402,9.023-27.86,11.552-33.601,2.16c-6.149,0.378-13.113-2.217-18.24-2.4c-5.516-0.197-11.193,1.491-14.16,3.6
		c-2.907,2.066-5.141,4.864-6.24,8.64c11.857-0.424,26.416-1.546,39.12-2.64c-0.266-1.578-1.766-3.19-1.2-4.8
		c0.873,1.527,0.626,4.173,2.399,4.8c0.092-1.139-1.351-1.999-0.479-3.12c0.257,1.183,0.891,1.989,1.2,3.12
		c0.894,0.254,0.774-0.505,1.2-0.72c0.192,0.688,0.797,0.459,1.199,0.48c5.327,0.277,12.583-1.627,18-0.72
		c0.564-0.396,0.847-1.074,1.681-1.2c1.217,1.831,4.11,1.215,5.76,2.16c0.312-0.595-0.535-1.165,0-1.2
		c0.086,0.634,0.576,0.864,1.439,0.72c0.449-0.876,0.283-0.504,1.2-0.24c-0.054-1.085,2.311-0.602,2.641-1.92
		c0.172-0.688,0.112-2.176-1.44-2.16c-0.019,1.115-0.074,3.025-2.16,2.4c-0.452-0.136-0.88-0.625-0.96-1.2
		c-0.404-2.921,4.145-3.003,5.28-1.2c2.032,3.227-1.651,3.916-2.88,5.76c2.887,0.633,5.867,1.173,8.399,2.16
		c0.102-0.993-0.92-1.375,0-1.92c4.55,1.691,8.438,4.042,13.92,4.8c3.8,1.721,9.283,3.037,13.681,3.36
		c-0.225-0.256-0.886-0.075-0.721-0.72c1.645,0.156,2.715,2.03,4.32,1.44c-0.463-0.653-1.438-1.288-2.399-1.68
		c-1.123-0.458-3.169-0.214-3.36-1.68C196.651,24.149,196.834,24.926,197.76,24.96z M98.16,8.4c-2.867,1.201-6.03,2.883-6.48,5.28
		c0.63-1.094,2.409-1.918,3.36-2.64c0.421-0.32,0.802-0.727,1.2-0.96c1.274-0.747,2.646-1.118,4.08-1.44
		c0.543-0.122,0.949-0.625,1.44-0.72c2.625-0.505,6.648-0.79,9.12-0.72c2.058,0.058,4.123,1.329,6,0.48
		c0.01,1.05,1.737,0.319,2.159,0C112.956,5.255,103.443,6.188,98.16,8.4z M90.24,15.36c0.24,0,0.48,0,0.72,0
		c-0.033-0.447-0.158-0.802-0.48-0.96C90.404,14.725,90.138,14.858,90.24,15.36z M206.64,19.44c-0.368-1.872-0.817-3.663-1.92-4.8
		C205.072,16.528,205.9,17.94,206.64,19.44z M151.92,18.48c0.33-0.459,1.8-1.703,0.239-1.92
		C152.204,17.183,151.393,18.167,151.92,18.48z M143.04,18.48c-1.275-0.028-0.192-0.045-0.239-0.72
		c-2.816-0.157-3.627,0.518-6.24,0.24c-0.168,0.739-0.168,0.461,0,1.2C139.252,19.112,141.081,18.753,143.04,18.48z M144.72,19.2
		c0.022-0.617,0.937-0.343,0.96-0.96c-1.119,0.395-1.062-0.142-1.92-0.48C143.518,18.802,144.291,18.83,144.72,19.2z M134.4,18.72
		c-1.051-0.991-2.008-0.158-2.16,0.72c1.943,0.194,2.135-0.672,3.84-0.24C136.472,17.937,134.584,18.017,134.4,18.72z M129.12,19.68
		c0.927,0.478,1.473-1.274,0.48-1.2C129.779,19.219,128.941,18.941,129.12,19.68z M130.56,19.44c0.668,0.385,0.664-1.037,0.24-0.96
		C130.724,18.805,130.458,18.938,130.56,19.44z M126.96,19.92c0.759,0.354,1.153-1.379,0.239-1.2
		C126.999,18.999,126.883,19.363,126.96,19.92z M128.16,19.68c0.633,0.072,0.788-0.333,0.721-0.96
		C128.234,18.736,127.726,19.269,128.16,19.68z M168.72,21.12c-3.27-0.88-7.283-2.466-9.84-2.16
		c-0.011,0.331,0.112,0.527,0.239,0.72c2.947,0.855,5.702,1.324,8.641,1.92c1.035,0.21,2.224,1.083,2.88,0.24
		C170.525,21.06,169.375,21.296,168.72,21.12z M126,19.68c0.699,0.353,0.699-1.073,0-0.72C126,19.2,126,19.44,126,19.68z
		 M158.4,19.2C157.591,18.471,157.672,20.087,158.4,19.2L158.4,19.2z M120.72,20.16c0.931-0.029,2.211,0.291,1.92-0.96
		c-1.17,0.088-0.806,0.626-1.68,0C120.884,19.524,120.619,19.658,120.72,20.16z M122.88,19.92c0.239,0,0.479,0,0.72,0
		c0-0.24,0-0.48,0-0.72c-0.16,0-0.32,0-0.48,0C123.107,19.507,122.812,19.532,122.88,19.92z M125.04,19.92
		c0.7,0.353,0.7-1.073,0-0.72C125.04,19.44,125.04,19.68,125.04,19.92z M148.56,19.68c-0.024,0.745,0.755,0.685,0.479,1.68
		c0.916-0.301,1.156,0.212,1.921-0.24C150.652,19.994,149.731,18.574,148.56,19.68z M150.48,19.68
		c0.307,0.013,0.332,0.308,0.72,0.24c0.013-0.413-0.185-0.615-0.479-0.72C150.721,19.441,150.526,19.486,150.48,19.68z
		 M151.92,20.88c0.397-0.242,0.26-1.019,0.479-1.44C151.484,19.024,150.947,20.935,151.92,20.88z M156.24,19.92
		c0.16,0,0.32,0,0.48,0c0.373-0.59-0.815-0.706-0.72-0.24C156.146,19.693,156.284,19.716,156.24,19.92z M114.24,20.64
		c0.633,0.072,0.788-0.333,0.721-0.96c-0.24,0-0.48,0-0.721,0C114.261,20.335,113.84,20.163,114.24,20.64z M115.44,20.4
		c0.16,0,0.32,0,0.48,0c-0.001-0.241,0.194-0.286,0.239-0.48c-0.307-0.013-0.332-0.308-0.72-0.24
		C115.44,19.92,115.44,20.16,115.44,20.4z M143.04,19.92c-0.173,0.733,0.246,0.875,0.24,1.44c1.01-0.29,1.053,0.388,1.681,0.48
		c0.379-0.939-0.624-0.497-0.721-0.96c0.277-0.36,0.843-1.011,0-1.2C144.281,20.2,143.389,19.789,143.04,19.92z M112.8,20.4
		c0.356,0.378,1.072,0.268,0.96-0.48C113.213,19.853,112.858,19.978,112.8,20.4z M135.84,20.16c-0.239,2.523,3.222,1.06,4.8,1.2
		C140.352,18.913,137.745,20.837,135.84,20.16z M142.56,21.12c-0.08-0.56-0.246-1.034-0.72-1.2
		C141.334,20.422,142.156,20.822,142.56,21.12z M153.6,21.12c5.909,1.291,11.907,2.493,17.76,3.84c0-0.48,0-0.96,0-1.44
		c-5.664-1.397-12.293-2.767-17.76-3.6C153.6,20.32,153.6,20.72,153.6,21.12z M109.2,20.88c0.013-0.146,0.036-0.284,0.24-0.24
		c-0.027-0.293-0.072-0.568-0.48-0.48C108.998,20.442,108.919,20.841,109.2,20.88z M110.16,20.88c0.014-0.146,0.036-0.284,0.24-0.24
		c-0.027-0.293-0.072-0.568-0.48-0.48C109.958,20.442,109.879,20.841,110.16,20.88z M134.4,21.84c0.769-0.032,1.056-0.544,0.96-1.44
		c-0.578,0.098-0.521-0.438-1.2-0.24C133.679,20.638,134.236,21.303,134.4,21.84z M141.84,21.6c-0.02-0.781-0.308-1.293-0.96-1.44
		C141.163,21.108,140.521,21.588,141.84,21.6z M102.96,20.64c0.88,1.078,3.544,0.559,4.56-0.24c-1.541-0.141-2.552,0.665-3.6,0
		C103.853,20.957,103.279,20.952,102.96,20.64z M131.76,22.08c0.967,0.007,1.851-0.069,2.16-0.72
		c-0.376-0.584-0.956-0.964-1.92-0.96C131.669,20.709,131.762,21.442,131.76,22.08z M100.32,20.88
		c-0.242,0.722,0.535,0.425,0.96,0.48c0-0.24,0-0.48,0-0.72C100.862,20.622,100.534,20.693,100.32,20.88z M101.52,21.36
		c0.24,0,0.48,0,0.72,0c0-0.24,0-0.48,0-0.72c-0.16,0-0.32,0-0.479,0C101.747,20.947,101.452,20.972,101.52,21.36z M126,21.12
		c-2.09-0.396-2.797,0.317-4.561-0.24c-0.201,0.519-0.621,0.819-0.479,1.68c3.77-0.334,7.011-0.055,9.6-0.48
		c-0.195-0.83,0.448-1.013,0-1.44c-0.771-0.211-0.329,0.791-0.96,0.72c-0.023-0.377,0.032-0.832-0.48-0.72
		c-0.616,0.023-0.343,0.937-0.96,0.96c0-0.32,0-0.64,0-0.96C127.186,21.458,126.875,20.202,126,21.12z M207.36,23.28
		c0.519-0.693-0.146-1.808-0.479-2.4C206.846,21.874,206.946,22.734,207.36,23.28z M91.68,21.84c0.744,0.024,1.331-0.108,1.68-0.48
		C92.428,21.467,91.854,20.759,91.68,21.84z M93.84,21.6c0.627,0.005,2.382,0.508,2.88-0.48C95.994,21.629,94.271,20.432,93.84,21.6
		z M116.64,22.32c0.679,0.381,2.682,0.381,3.36,0c0-0.4,0-0.8,0-1.2C118.351,21.495,117.252,20.908,116.64,22.32z M88.8,21.84
		c0.646,0.412,2.472,0.343,2.64-0.48C90.776,21.928,89.222,20.717,88.8,21.84z M110.64,21.6c-0.753,1.282-1.592-0.268-2.64,0.72
		c-0.038-0.282,0.042-0.681-0.24-0.72c-0.409,0.151-0.395,0.725-0.72,0.96c0.043-0.523-0.196-0.764-0.72-0.72
		c0.018,0.418-0.053,0.747-0.24,0.96c2.992,0.73,6.253-0.29,9.6,0c0-0.48,0-0.96,0-1.44c-0.895-0.254-0.775,0.505-1.2,0.72
		c0.044-0.523-0.196-0.764-0.72-0.72C112.703,21.98,111.587,22.114,110.64,21.6z M85.44,22.08c0.651-0.149,1.905,0.305,2.16-0.24
		C86.88,21.662,85.888,21.322,85.44,22.08z M81.36,22.08c0.034,0.962,1.628-0.155,2.64,0.24
		C84.001,21.393,81.756,21.859,81.36,22.08z M80.4,22.56c0.413,0.013,0.615-0.185,0.72-0.48C80.707,22.067,80.505,22.265,80.4,22.56
		z M99.6,23.28c0.32,0,0.64,0,0.96,0c0.035-0.595,0.044-1.165-0.48-1.2C99.978,22.538,99.394,22.514,99.6,23.28z M100.8,23.28
		c1.039,0.366,1.295-1.096,0.48-1.2C101.177,22.537,100.763,22.683,100.8,23.28z M102.72,23.04c0.067-0.547-0.058-0.902-0.48-0.96
		C102.295,22.505,101.998,23.282,102.72,23.04z M103.2,23.04c0.668,0.384,0.664-1.037,0.24-0.96
		C103.365,22.404,103.098,22.539,103.2,23.04z M103.92,23.04c0.64,0,1.28,0,1.92,0c0-0.32,0-0.64,0-0.96
		c-0.907-0.348-0.46,0.659-1.2,0.48c-0.054-0.186-0.007-0.474-0.24-0.48C104.575,22.735,103.923,22.563,103.92,23.04z M144.72,22.32
		c-4.005,0.433-7.582,0.563-11.76,0.48c-0.415,0.146,0.018,1.139-0.48,1.2c0.067-0.547-0.058-0.902-0.479-0.96
		c-0.328,0.472-0.229,1.371-0.48,1.92c1.006-0.561,0.742-0.184,1.92,0c0.133-0.427,0.123-0.997,0.48-1.2c0,0.32,0,0.64,0,0.96
		c0.893,0.252,0.47-0.81,0.96-0.96c-0.036,0.596-0.045,1.165,0.479,1.2c0.465-0.255,0.335-1.105,0.72-1.44
		c-0.076,0.557,0.039,0.921,0.24,1.2c5.678,0.117,9.049-0.669,14.4,0.24c-0.237-1.163,0.655-2.049,0-2.88
		C148.302,22.042,146.375,23.62,144.72,22.32z M172.56,22.32c-0.324-0.075-0.458-0.341-0.96-0.24
		C171.419,22.898,172.517,23.016,172.56,22.32z M30,23.76c1.546-0.346,1.852,0.548,2.88,0.72c-0.902-0.938-1.809-1.871-3.36-2.16
		C29.33,23.15,29.787,23.333,30,23.76z M74.16,22.8c0.729-0.15,2.067,0.308,2.4-0.24C75.804,22.206,74.75,22.342,74.16,22.8z
		 M94.32,23.52c1.283-0.317,4.007,0.807,3.84-0.96c-0.829,0.684-0.922-0.374-1.92,0.48c0.144-0.624-0.096-0.864-0.72-0.72
		C95.553,23.373,93.976,21.861,94.32,23.52z M70.32,22.8C69.512,22.071,69.592,23.688,70.32,22.8L70.32,22.8z M90.24,23.04
		c0,0.24,0,0.48,0,0.72c1.859,0.007,2.095-0.133,3.84-0.24c0-0.32,0-0.64,0-0.96c-1.041,0.75-1.381-0.439-2.16,0.72
		c0.013-0.413-0.185-0.615-0.48-0.72C91.178,23.798,90.833,22.552,90.24,23.04z M98.64,23.52c0.16,0,0.32,0,0.48,0
		c0-0.32,0-0.64,0-0.96c-0.16,0-0.32,0-0.48,0C98.64,22.88,98.64,23.2,98.64,23.52z M89.04,23.28
		c-0.224-0.146-0.885-0.558-0.72,0.24c0.382,0.52,2.124,0.379,1.68-0.72c-0.24,0-0.48,0-0.72,0
		C89.226,22.986,89.273,23.273,89.04,23.28z M154.32,24.96c0.383-0.177-0.055-1.175,0.72-0.96c0.055,0.454-0.271,0.529-0.239,0.96
		c0.874,0.154,0.296-1.143,0.96-1.2c0,0.4,0,0.8,0,1.2c0.821-0.392,0.721,0.029,1.2,0.48c0.334-0.306,0.104-1.176,0.72-1.2
		c0,0.4,0,0.8,0,1.2c0.761,0.359,2.119,0.121,2.88,0.48c0.414-0.146-0.019-1.138,0.479-1.2c0.453,0.373-0.344,0.935,0.24,1.44
		c3.266,0.254,6.097,0.943,9.12,1.44c-0.013,0.307-0.308,0.333-0.24,0.72c1.66,0.087,1.076-1.71,0.48-2.4
		c-3.774-0.305-6.591-1.57-10.32-1.92c0.035,0.595,0.045,1.165-0.479,1.2c0-0.48,0-0.96,0-1.44c-2.409-0.299-3.329-0.643-5.761-0.96
		C154.121,23.222,153.654,24.824,154.32,24.96z M175.44,23.28c0.385-0.668-1.036-0.664-0.96-0.24
		C174.898,23.022,175.226,23.094,175.44,23.28z M197.52,27.84c-3.442-0.618-6.602-0.98-9.6-1.44c-0.962-0.147-1.359-0.807-2.4-1.2
		c-0.352-0.133-0.843,0.117-1.2,0c-0.295-0.097-0.632-0.6-0.96-0.72c-0.526-0.192-1.284-0.043-1.92-0.24
		c-0.88-0.272-1.704-1.104-2.16-1.2c-0.75-0.158-2.075-0.509-2.64,0.48c0.217,0.658,0.884-0.468,0.96,0.48
		c0.132,0.957,0.132,0.723,0,1.68c-0.918-0.537-1.963-0.909-3.6-0.48c-0.055-0.425,0.241-1.202-0.48-0.96
		c-0.72,0.029-0.77,1.362-0.48,1.68c1.402-0.236,3.51,0.13,4.561,0.96c-0.651,1.51,1.114,2.634,0.72,3.84
		c3.115-0.121,9.044,0.669,11.521,0c0.27-0.073,1.819,0.198,0.96-0.48c-0.382,0.366-1.963-0.105-2.16-0.72
		c2.248-1.001,3.467,1.147,5.28,0.72c-0.036-0.596,0.124-0.996,0.479-1.2c2.451,1.4,7.052,1.894,10.08,1.92
		c0.101-0.981-0.79-0.97-0.479-2.16c-1.011-0.37-0.039,1.242-0.721,1.2c-0.445-0.955-1.125-0.269-1.439-1.44
		c-0.041,0.359,0.085,0.886-0.24,0.96c-0.663,0.103-0.226-0.895-0.72-0.96c-0.333,0.147-0.036,0.924-0.48,0.96
		c0.035-0.595,0.045-1.165-0.479-1.2c-0.589,0.32,0.432,0.725-0.24,0.96c-0.54-0.1,0.036-1.316-0.72-1.2
		c-0.21,0.351-0.191,0.929-0.96,0.72C197.192,28.583,197.972,28.263,197.52,27.84z M79.68,23.28c0.021,0.655-0.4,0.483,0,0.96
		c1.057-0.343,1.412,0.018,2.64-0.24c0.03-0.601,0.458-0.751-0.24-0.96C81.376,23.572,80.615,23.604,79.68,23.28z M82.8,24
		c1.965-0.473,3.744,0.705,4.08-0.96c-1.798,0.173-2.114,0.316-3.84,0C82.964,23.364,82.698,23.499,82.8,24z M87.6,23.76
		c0.035-0.283,0.427-0.544,0-0.72C87.565,23.324,87.173,23.584,87.6,23.76z M124.32,23.52c-1.178,0.065-3.507-0.752-2.16,0.96
		c0.934-1.311-0.126,1.1,0.721,0.96c0.28-0.359,0.298-0.981,0.72-1.2c0.055,0.425-0.242,1.202,0.479,0.96
		c0.025-0.615,0.137-1.145,0.48-1.44c0.22,0.421,0.082,1.198,0.479,1.44c0.22-0.421,0.083-1.198,0.48-1.44
		c-0.031,0.592-0.036,1.157,0.24,1.44c0.825-0.194,1.221,0.135,1.68-0.72c0.123,1.472,1.642,0.006,2.64,0.72
		c0.361-0.389,0.361-1.771,0-2.16C128.083,23.018,126.157,23.417,124.32,23.52z M61.2,23.76c0.16,0,0.32,0,0.48,0
		c0-0.16,0-0.32,0-0.48c-0.16,0-0.32,0-0.48,0C61.2,23.44,61.2,23.6,61.2,23.76z M78.24,24.24c0.751,0.111,1.072-0.209,0.96-0.96
		c-0.24,0-0.48,0-0.72,0C78.534,23.734,78.209,23.81,78.24,24.24z M120.48,23.52c0.301,0.916-0.212,1.156,0.24,1.92
		c0.964,0.004,0.667-1.253,0.72-2.16C120.986,23.226,120.911,23.55,120.48,23.52z M74.16,24.48c0.889-0.071,2.056,0.136,1.92-0.96
		c-0.894,0.646-0.599,0.177-1.68,0C74.325,23.845,74.059,23.979,74.16,24.48z M77.28,24.24c0.24,0,0.48,0,0.72,0
		c0.043-0.524-0.196-0.764-0.72-0.72C77.28,23.76,77.28,24,77.28,24.24z M113.76,23.76c-7.511-0.156-16.146,0.389-24,0.96
		c-2.584,0.188-5.165-0.111-7.44,0.72c0.28,0.041,0.261,0.379,0.24,0.72c1.212-1.184,2.68,0.551,3.84-0.96
		c-0.067,0.547,0.058,0.902,0.48,0.96c0.117-0.284,0.256-0.544,0.48-0.72c0.956,1.821,2.27-0.821,3.36,0.48
		c0.636-0.654,0.106-0.264,0.48,0c0.525,0.372,0.521-0.51,1.2-0.48c-0.029-0.001,0.168,0.434,0.48,0.48
		c0.936,0.139,2.176-0.43,3.12,0c0.18-1.05,0.868-0.201,1.44-0.96c0.131,0.349-0.28,1.24,0.24,1.2c0.24-0.32,0.396-0.725,0.72-0.96
		c0.104,1.199,0.424-0.187,0.96,0c0.409,0.723,1.432-0.126,2.4,0.72c0.9-0.968,1.442-0.059,2.4-0.72c0,0.24,0,0.48,0,0.72
		c2.042-0.119,4.778,0.458,5.28-1.2c0,0.32,0,0.64,0,0.96c2.314-0.07,3.037-0.294,5.521,0c0.109-0.614-0.01-1.213,0.72-1.68
		C115.125,23.208,114.42,23.774,113.76,23.76z M116.64,23.76c-0.077,0.557,0.038,0.922,0.24,1.2c1.361,0.002,2.372-0.348,2.64-1.44
		C118.569,23.608,117.22,23.3,116.64,23.76z M55.44,24.24c0.596,0.036,0.996-0.124,1.2-0.48
		C56.187,23.866,55.193,23.434,55.44,24.24z M68.88,24.48c1.24-0.28,3.625,0.585,4.08-0.48C71.876,24.021,69.708,23.469,68.88,24.48
		z M73.68,24.48c0.034-0.284,0.427-0.544,0-0.72C73.646,24.043,73.252,24.304,73.68,24.48z M52.8,24
		c-0.497,0.143-1.577-0.297-1.68,0.24C52.034,23.977,52.618,24.875,52.8,24z M66.48,24.72c0.547,0.067,0.902-0.058,0.96-0.48
		C67.159,23.937,66.443,24.048,66.48,24.72z M67.68,24.48c0.377-0.023,0.832,0.032,0.72-0.48c-0.16,0-0.32,0-0.48,0
		C67.921,24.241,67.726,24.286,67.68,24.48z M31.92,26.4c0-0.32,0-0.64,0-0.96C31.134,25.389,30.973,26.566,31.92,26.4z M31.68,25.2
		c-0.029-0.611-0.35-0.931-0.96-0.96c0.054,0.454-0.271,0.529-0.24,0.96C30.795,25.508,31.365,25.508,31.68,25.2z M41.04,24.96
		c0.4,0,0.8,0,1.2,0c0-0.16,0-0.32,0-0.48C42.183,24.061,40.886,24.378,41.04,24.96z M44.88,24.72c0.534,0.505,1.157-0.253,2.16,0
		C46.997,23.695,45.295,24.578,44.88,24.72z M49.92,24.24c-0.729,0.15-2.067-0.308-2.4,0.24C48.25,24.33,49.587,24.787,49.92,24.24z
		 M59.28,24.96c0.327,0.388,1.659-0.248,2.64,0C61.351,23.958,59.733,24.384,59.28,24.96z M63.84,24.72c0.16,0,0.32,0,0.48,0
		c0.374-0.591-0.815-0.706-0.72-0.24C63.747,24.494,63.884,24.516,63.84,24.72z M64.8,24.72c0.454-0.106,1.447,0.326,1.2-0.48
		c-0.4,0-0.8,0-1.2,0C64.8,24.4,64.8,24.56,64.8,24.72z M206.88,30c1.474-0.824,0.889-4.011,0.479-5.52
		C207.075,25.618,207.322,28.337,206.88,30z M56.16,25.2c0.726-0.075,1.866,0.266,1.92-0.48C57.354,24.794,56.213,24.454,56.16,25.2
		z M36,25.2c-0.37,0.724,1.242,0.631,1.2,0.24C36.447,25.559,36.566,24.613,36,25.2z M46.8,25.68c2.962-0.078,6.376,0.295,8.4-0.72
		C52.223,24.971,48.948,24.919,46.8,25.68z M70.08,25.68c-1.394-0.226-4.133,0.151-6.24,0c0,0.4,0,0.8,0,1.2
		c2.673-0.474,3.104-0.256,5.76,0C69.703,26.423,70.117,26.277,70.08,25.68z M70.56,26.88c0.756,0.116,0.18-1.1,0.72-1.2
		c0.106,0.454-0.326,1.446,0.48,1.2c0.396-0.003,0.134-0.666,0.479-0.72c-0.123,1.37,4.631,0.624,4.56-0.24
		c0.256,0.224,0.075,0.885,0.72,0.72c0.471-1.092,1.873,0.545,3.84,0c-0.173-0.733,0.246-0.875,0.24-1.44
		c-4.378-0.531-6.731,0.548-11.28,0.24C70.547,26.038,69.463,26.888,70.56,26.88z M32.4,25.44c-0.013,0.413,0.185,0.615,0.48,0.72
		c0.097-0.543,1.407,0.126,0.96-0.96C33.109,25.559,32.907,25.121,32.4,25.44z M34.32,25.68c0.16,0,0.32,0,0.48,0
		c0-0.16,0-0.32,0-0.48c-0.16,0-0.32,0-0.48,0C34.32,25.36,34.32,25.52,34.32,25.68z M39.6,26.64c1.312-0.484,2.169-0.177,3.36-0.96
		C41.861,25.295,39.831,25.425,39.6,26.64z M46.08,26.16c0.014-0.146,0.036-0.284,0.24-0.24c-0.027-0.293-0.072-0.568-0.48-0.48
		C45.877,25.723,45.799,26.121,46.08,26.16z M62.88,26.88c0.882,0.231,0.954-1.179,0.24-1.2
		C62.918,25.958,62.803,26.323,62.88,26.88z M172.8,32.64c-0.866,0.094-1.609,0.311-2.4,0.48c-0.809-1.309,0.615-2.192,0.48-3.6
		c-3.062-1.268-8.043-1.866-11.521-1.92c0.235,1.085,0.383,2.955-0.72,3.36c-0.182-1.461,0.526-2.034,0.479-3.36
		c-1.069,0.463-2.039-1.49-3.119-0.24c0.125-0.859-1.596-1.106-1.921-0.72c0.283,0.357,0.603,0.677,0.96,0.96
		c-1.433-0.313-0.839,1.401-0.96,2.4c-0.387,1.228-4.439,1.327-2.64-0.48c0.617,0.023,0.343,0.937,0.96,0.96
		c0.276-0.284,0.271-0.848,0.24-1.44c-0.349-0.131-1.24,0.28-1.2-0.24c0.3-0.504,1.1-1.229,0.48-1.92
		c-0.82-0.18-0.306,0.975-1.2,0.72c-0.251-0.549-0.152-1.448-0.48-1.92c-3.91,0.158-7.815,0.31-12.96,0.24
		c-0.558,0.163-0.35,1.09-0.96,1.2c-0.055-0.425,0.242-1.202-0.479-0.96c-0.559,0.871-0.181-0.146-1.2,0
		c-0.106,0.454,0.326,1.446-0.48,1.2c0.186-0.164,0.625-1.43-0.239-1.2c-1.021-0.221-0.017,1.584-0.96,1.44
		c-0.175-0.734,0.414-0.706,0.239-1.44c-0.751,0.049-1.762-0.162-2.16,0.24c-0.274,0.995,0.505,0.935,0.48,1.68
		c-0.082,0.877-0.025,1.895-0.96,1.92c-0.074,0.726,0.267,1.867-0.48,1.92c-0.243-0.99,0.883-2.105-0.479-2.16
		c0.045,1.28,0.479,2.242-0.72,2.64c-0.191-1.231,0.505-1.575,0.479-2.64c-0.32,0-0.64,0-0.96,0
		c-0.074,0.726,0.267,1.867-0.479,1.92c-0.604-0.601,0.275-0.943,0.239-1.68c-1.405-0.206-0.097,2.303-1.439,2.16
		c-0.142-1.022,0.173-1.587,0.24-2.4c-0.32,0-0.641,0-0.96,0c-0.129,0.832,0.355,2.277-0.48,2.4c-0.26-0.76,0.931-2.017-0.24-2.16
		c-0.742,0.058,0.375,1.975-0.72,1.68c-0.188-0.592,0.872-1.662-0.24-1.68c-0.536,0.584-0.048,2.192-0.96,2.4
		c-0.054-1.014,0.37-1.55,0.48-2.4c-1.766-0.198-0.127,1.591-1.2,2.16c-0.359-0.666-0.981,0.417-1.2-0.24
		c-0.186-0.935,0.888-1.244,0.24-1.92c-1.477-0.277,0.036,2.437-1.44,2.16c-0.062-0.986,0.976-1.572,0-2.16
		c-0.557,0.403,0.23,2.15-0.96,1.92c-0.117-0.757,0.433-0.848,0.24-1.68c-1.254-0.214-0.265,1.815-1.44,1.68
		c-0.01-0.746,1.032-1.673-0.239-1.68c-0.619,0.181,0.175,1.775-0.721,1.68c-0.175-0.545,0.433-1.872-0.479-1.68
		c-0.528,0.271-0.017,1.583-0.72,1.68c-0.523-0.502,0.119-0.685,0-1.44c-1.031-0.231-0.422,1.179-1.2,1.2
		c0.066-0.547-0.058-0.902-0.48-0.96c-0.283,0.356-0.207,1.072-0.96,0.96c0.104-0.534,0.552-1.302-0.24-1.44
		c-0.332,0.387-0.202,1.237-0.72,1.44c-0.716-0.344,0.631-1.251-0.479-1.2c-0.541,0.1,0.035,1.316-0.72,1.2
		c-0.338-0.688,0.745-1.31-0.24-1.2c-0.728-0.007-0.232,1.208-0.96,1.2c-0.263-0.612,0.82-1.235-0.24-1.2
		c-0.668-0.108,0.188,1.308-0.48,1.2c-0.532-0.188,0.045-1.486-0.96-1.2c-0.003,0.636,0.133,1.413-0.479,1.44
		c-0.131-0.349,0.28-1.24-0.24-1.2c-0.281,0.359-0.298,0.981-0.72,1.2c0-0.48,0-0.96,0-1.44c-1.049-0.169-0.511,1.249-1.2,1.44
		c-0.263-0.612,0.82-1.235-0.24-1.2c-0.489,0.15-0.067,1.212-0.96,0.96c0.327-0.306,0.371-1.176-0.24-1.2
		c-0.541,0.339-0.472,1.288-1.2,1.44c0-0.32,0-0.64,0-0.96c-0.771-0.21-0.498,0.623-0.96,0.72c-0.333-0.147-0.036-0.924-0.48-0.96
		c-0.411,0.229-0.483,0.796-0.96,0.96c-0.033-0.447-0.158-0.802-0.48-0.96c-0.241,0.319-0.227,0.893-0.72,0.96
		c0.044-0.524-0.196-0.764-0.72-0.72c-0.241,0.319-0.227,0.893-0.72,0.96c0-0.32,0-0.64,0-0.96c-1.062-0.342-0.628,0.812-1.44,0.72
		c0.421-1.452-1.656,0.822-2.4-0.48c-0.284,0.356-0.208,1.072-0.96,0.96c-0.041-0.359,0.085-0.886-0.24-0.96
		c0.013,0.413-0.185,0.615-0.48,0.72c-0.083-1.188-0.63,0.2-1.2,0c0-0.24,0-0.48,0-0.72c-0.987,1.058-2.061-0.059-3.84,0.72
		c0.153,13.621,10.26,17.883,22.56,15.84c4.86-0.807,9.842-2.152,13.44,0c0.331-0.309,0.237-1.042,0.24-1.68
		c4.132-5.987,17.893-5.255,24.72-2.16c0,0.24,0,0.48,0,0.72c1.341,0.04,1.763,0.385,2.641,0.96c2.512,1.648,4.46,3.978,5.52,6.48
		c1.98-0.92,4.093-0.747,5.521-0.48c1.733,0.325,2.916,0.428,4.319,0.96c1.059,0.402,2.002,1.471,3.12,1.921
		c1.61,0.647,2.885,1.318,4.32,1.68c6.909,1.736,14.312-0.147,18.479-2.16c4.354-2.104,7.88-4.717,10.08-8.64
		c1.231-2.196,1.646-4.478,2.4-6.96c0.021-0.067,0.454-0.143,0.479-0.24c0.338-1.268,0.286-2.228,0.48-3.36
		c-1.119-0.111-1.542,0.473-2.4,0c-0.409,0.151-0.395,0.725-0.72,0.96c-0.891-0.309-0.892-1.509-2.16-1.44
		c0.156,1.604,1.78,1.74,2.16,3.121c-1.592-0.968-2.455-2.665-4.32-3.36c0.937,2.024,3.136,2.784,4.08,4.8
		c-1.971-1.148-2.823-3.417-5.28-4.08c0.198,2.044,3.059,2.698,2.881,4.32c-1.255-1.306-2.71-2.411-3.841-3.84
		c0.847-0.114,0.789-1.131,0.96-1.92c-0.912-0.321-1.33,0.107-2.399-0.24c-0.415,0.544,0.093,2.012-0.72,2.16
		c-0.135-0.969,1.084-2.2,0-2.64c-0.854,0.347-0.012,2.388-1.2,2.4c0.067-0.812,0.382-1.378,0.24-2.4
		c-1.259,0.475-0.548,0.177-1.681-0.24c-0.753,0.527-0.31,2.25-0.96,2.88c-1.119-0.559,0.596-1.58,0.24-2.88
		c-1.034-0.313-0.759,0.681-1.2,0.96c-0.055-0.425,0.242-1.202-0.479-0.96c-0.978,0.383,0.211,2.931-1.2,2.88
		c-0.223-1.167,1.166-2.514,0-3.12c-0.747,0.854,0.177,3.376-1.44,3.36c-0.111-1.391,0.869-1.691,0.721-3.12
		c-1.975-0.214-0.204,3.316-1.921,3.36c-0.227-1.587,0.776-1.944,0.48-3.6c-1.293-0.413-0.672,1.088-1.2,1.44
		c-0.146-0.495,0.388-1.667-0.479-1.44c-1.182,0.418-0.019,3.182-1.44,3.36c-0.042-1.322,0.73-1.83,0.48-3.36
		c-1.824,0.31-0.365,2.464-1.681,3.12c-0.222-1.167,1.166-2.514,0-3.12c-0.593,0.767-0.177,2.543-0.96,3.12
		c-0.511-0.809,0.436-1.866,0.24-3.12c-1.073,0.369-2.447-0.362-3.36,0c-0.194,0.077,0.13,0.655-0.239,0.72
		c-0.091,0.016-0.801-1.055-0.96-0.48c-0.267,1.254-0.577,2.464-0.48,4.08c-0.67,0.305-1.186,0.591-1.92,0.24
		c-0.297,0.583-0.487,1.273-1.44,1.2C172.058,36.021,173.467,34.399,172.8,32.64z M173.28,36c-0.111-1.472,0.518-2.203,0.721-3.36
		C172.852,32.598,172.911,36.1,173.28,36z M20.64,28.08c0.42,0.066,1.197-0.676,1.44,0c-0.086,1.303-1.299,1.436-0.72,2.88
		c1.066,0.106,1.307-0.614,1.2-1.68c1.139-0.461,1.768-1.432,1.92-2.88C23.091,25.232,21.495,27.201,20.64,28.08z M30.48,25.92
		C30.227,27.313,31.52,26.02,30.48,25.92L30.48,25.92z M52.08,26.16c-0.054,0.186-0.007,0.473-0.24,0.48
		c-0.567-0.6-1.96-0.307-2.64,0.48c4.563,0.499,7.927-0.019,10.56-0.96C57.03,25.891,54.442,26.497,52.08,26.16z M60.72,26.88
		c0.759-0.33,0.802-0.052,1.68,0c-0.021-0.655,0.4-0.483,0-0.96c-0.827,0.451-0.612,0.451-1.44,0
		C60.884,26.245,60.618,26.378,60.72,26.88z M122.88,27.6c0.802-0.062,1.173-0.322,1.92,0c0.188-0.167,0.534-1.339,0-1.44
		c-0.135,0.346-0.375,0.585-0.721,0.72C123.921,25.601,122.208,26.284,122.88,27.6z M126.24,26.64c0.139,1.512,1.731,0.2,2.641,0.72
		c0.035-0.595,0.044-1.165-0.48-1.2C127.719,27.049,127.284,26.403,126.24,26.64z M130.08,26.16c-0.239,0-0.479,0-0.72,0
		C128.12,27.9,131.321,27.9,130.08,26.16z M15.84,26.88c-0.667-0.221-2.467-1.018-2.88,0c0.392-0.175,1.044,0.477,0.48,0.48
		c-1.653,0.027-3.402-0.042-4.08,0.96c1.649,0.092,4.414-0.507,6,0.72c0.125-0.355,0.355-0.605,0.48-0.96
		c-0.319-0.588-0.893,0.264-0.96-0.24C15.162,27.481,15.877,27.557,15.84,26.88z M44.64,27.36c0.48,0,0.96,0,1.44,0
		c-0.041-0.359,0.085-0.886-0.24-0.96C45.48,27.257,44.639,26.143,44.64,27.36z M47.04,27.36c0.757,0.118,0.848-0.432,1.68-0.24
		c-0.042-0.758-0.95-0.651-1.68-0.72C47.04,26.72,47.04,27.04,47.04,27.36z M120,27.36c0.038-0.167-0.084-1.396-0.24-0.72
		C119.549,27.554,119.889,27.842,120,27.36z M42.72,27.36c0-0.24,0-0.48,0-0.72c-0.24,0-0.48,0-0.72,0
		C41.957,27.164,42.196,27.403,42.72,27.36z M102.24,27.12c-0.075,0.324-0.341,0.458-0.24,0.96c1.602-0.21,1.782-0.301,3.6-0.24
		c0.035-0.595,0.044-1.165-0.48-1.2C103.87,26.939,102.897,27.796,102.24,27.12z M109.44,27.12c-0.241,0-0.286-0.194-0.48-0.24
		c-0.013,0.307-0.308,0.333-0.24,0.72C109.133,27.613,109.335,27.415,109.44,27.12z M109.44,27.84
		c1.349-0.222,4.014,0.503,5.521-0.72c0,0.24,0,0.48,0,0.72c0.896-0.021,0.684-0.269,1.439,0c0.201-0.278,0.316-0.643,0.24-1.2
		c-0.411-0.636-0.394,0.75-0.72,0.72c-0.044-0.004,0.048-0.7,0-0.72c-0.935-0.38-2.951,0.468-3.12,0.48
		c-0.015,0.001-0.297-0.476-0.48-0.48c-0.055-0.001-0.531,0.484-0.72,0.48c-0.004,0-0.19-0.479-0.24-0.48
		c-0.602-0.022-1.058,0.778-1.44,0C109.817,27.097,109.403,27.243,109.44,27.84z M117.84,27.84c0.725,0.37,0.631-1.242,0.239-1.2
		C117.878,26.918,117.763,27.283,117.84,27.84z M121.44,27.36C122.629,27.041,121.815,26.227,121.44,27.36L121.44,27.36z
		 M96.96,27.6c0.317,0.002,0.219,0.42,0.48,0.48c1.095-0.381,1.645-0.169,3.12,0c0.327-0.306,0.371-1.176-0.24-1.2
		c-0.174,0.96-1.413,0.32-2.16,0C97.993,27.89,97.067,26.65,96.96,27.6z M101.04,27.84c0.668,0.385,0.664-1.036,0.24-0.96
		C101.205,27.205,100.938,27.338,101.04,27.84z M106.8,28.08c0.882,0.231,0.954-1.179,0.24-1.2
		C106.838,27.159,106.724,27.523,106.8,28.08z M107.76,27.84c0.668,0.385,0.664-1.036,0.24-0.96
		C107.924,27.205,107.658,27.338,107.76,27.84z M89.04,28.32c0.929,0.266,0.854-0.848,1.44-0.24c-0.104-0.536-0.424-0.856-0.96-0.96
		C89.417,27.577,89.003,27.723,89.04,28.32z M94.08,28.32c0.974-0.775,1.454,0.723,1.68-0.96c-0.7,0.213-0.828,0.307-1.2-0.24
		C94.458,27.578,93.875,27.554,94.08,28.32z M105.84,27.84c0.16,0,0.32,0,0.48,0c0.269-0.346,0.259-0.585-0.24-0.72
		C106.067,27.427,105.772,27.452,105.84,27.84z M78.96,28.56c0.888,0.167,1.06-0.38,0.96-1.2
		C79.245,27.405,78.897,27.777,78.96,28.56z M81.12,28.32c0.706,0.304,1.314-0.603,2.16,0c0.07-0.147,0.597-0.924,0-0.96
		C83.076,28.251,81.312,26.616,81.12,28.32z M83.76,27.6c0.101,0.459,0.087,1.033,0.72,0.96c-0.131-0.349,0.28-1.241-0.24-1.2
		C84.187,27.547,84.039,27.639,83.76,27.6z M86.88,28.56c0.759,0.354,1.154-1.379,0.24-1.2C86.918,27.639,86.803,28.003,86.88,28.56
		z M88.08,28.32c0.632,0.073,0.788-0.332,0.72-0.96C88.167,27.288,88.012,27.692,88.08,28.32z M92.64,28.32
		c0.172-1.025,1.307,0.887,1.2-0.96c-0.597,0.026-0.743,0.45-1.2,0C92.57,27.507,92.043,28.284,92.64,28.32z M72.48,28.8
		c0.035-0.595,0.045-1.165-0.48-1.2C71.845,28.185,71.515,28.834,72.48,28.8z M74.16,28.8c0.564-0.431,1.702,0.229,1.68-1.2
		c-1.057-0.024-0.983,0.803-1.68,0C74.022,27.746,73.598,28.738,74.16,28.8z M78,28.56c0.633,0.073,0.619-0.501,0.72-0.96
		C78.087,27.528,77.932,27.932,78,28.56z M80.88,28.32c0.013-0.413-0.185-0.615-0.48-0.72C80.057,27.951,80.047,28.529,80.88,28.32z
		 M52.08,29.04c0.249-0.227,0.219-1.236-0.48-1.2C51.565,28.436,51.555,29.005,52.08,29.04z M57.12,28.08
		c-0.067,0.547,0.058,0.902,0.48,0.96c0.3-0.931,1.405,0.336,1.68-0.72C58.263,28.131,58.058,27.936,57.12,28.08z M63.6,28.8
		c0.24,0,0.48,0,0.72,0c-0.055-0.425,0.242-1.202-0.48-0.96C63.765,28.165,63.499,28.298,63.6,28.8z M68.4,28.56
		c0-0.16,0-0.32,0-0.48C67.957,27.283,67.23,28.8,68.4,28.56z M68.64,28.56c0.644,0.258,1.947,0.555,1.68-0.72
		c-0.704,0.169-0.707,0.806-1.2,0C69.062,28.183,68.725,28.245,68.64,28.56z M72.96,27.84C72.231,28.648,73.847,28.568,72.96,27.84
		L72.96,27.84z M38.4,28.56c0.914-0.263,1.498,0.635,1.68-0.24C39.365,28.384,38.619,27.648,38.4,28.56z M45.6,29.28
		c0.413,0.293,1.917,0.14,2.16-0.48c-0.838,0.038-1.018-0.582-1.68-0.72C46.427,28.987,45.42,28.541,45.6,29.28z M51.12,29.04
		c0.296-0.776-0.777-0.184-0.48-0.96c-0.742-0.314-1.362,0.681-0.72,0.96c0.062-0.337,0.526-0.273,0.72-0.48
		C50.691,28.829,50.906,28.934,51.12,29.04z M55.92,28.8c0.24,0,0.48,0,0.72,0c0-0.24,0-0.48,0-0.72c-0.16,0-0.32,0-0.48,0
		C56.147,28.387,55.853,28.413,55.92,28.8z M61.44,28.8c0.24,0,0.48,0,0.72,0c-0.038-0.282,0.041-0.681-0.24-0.72
		C61.898,28.458,61.308,28.268,61.44,28.8z M62.64,28.8c0.7,0.353,0.7-1.073,0-0.72C62.64,28.32,62.64,28.56,62.64,28.8z
		 M65.04,28.8c0.674,0.247,1.669-0.374,0.96-0.72C66.077,28.716,64.656,27.855,65.04,28.8z M17.52,30
		c0.433-0.503-0.33-1.266-1.2-1.2C16.265,29.655,16.665,30.055,17.52,30z M26.4,30.72c1.484,0.119,2.753-1.24,2.64-1.92
		C28.334,29.614,26.761,29.562,26.4,30.72z M29.52,30.48c0.8-0.16,1.303-0.617,1.2-1.68C29.444,28.618,29.244,29.776,29.52,30.48z
		 M171.36,30.96c0.678,0.229,1.186-1.561,0.24-1.44C171.774,30.254,171.186,30.226,171.36,30.96z M23.28,30.72
		c0.42,0.349,1.367-0.229,1.44-0.96C24.154,29.994,23.198,29.837,23.28,30.72z M42.24,30.72c0-0.32,0-0.64,0-0.96
		c-0.24,0-0.479,0-0.72,0C41.452,30.388,41.608,30.792,42.24,30.72z M19.68,33.36c0.003-0.396,0.666-0.134,0.72-0.48
		C20.097,32.263,18.942,33.042,19.68,33.36z M20.88,30.72c-0.807-0.119-1.995-0.709-2.4-0.48c0.078,0.882-0.205,2.125,0.24,2.64
		C20.003,32.724,20.414,31.693,20.88,30.72z M122.4,31.2c0.139-0.146,0.562-1.139,0-1.2C122.262,30.146,121.838,31.139,122.4,31.2z
		 M24.72,31.44c0.747,0.245,1.713-0.497,1.2-0.72C25.767,31.207,24.798,30.878,24.72,31.44z M22.32,32.16
		c0.076-0.325,0.342-0.458,0.24-0.96c-0.24,0-0.48,0-0.72,0C21.773,31.747,21.898,32.102,22.32,32.16z M36,34.08
		c1.293-0.744,1.148,1.195,1.92,1.68c0.138-0.422-0.29-1.41,0.24-1.44c0.679-0.039-0.2,1.479,0.48,1.44
		c0.167-0.881,0.414-1.824,0-2.64c-0.632,0.062-0.788,0.494-0.72-0.48c-0.853-0.374-0.145,0.815-0.72,0.72c0-0.4,0-0.8,0-1.2
		c-0.693-0.087-0.567-0.223-1.2-0.72C35.584,32.257,36.185,32.848,36,34.08z M86.64,32.64c-0.682,0.042,0.29-1.57-0.72-1.2
		C85.384,32.058,85.901,33.469,86.64,32.64z M21.12,32.88c0.003-0.477,0.655-0.305,0.48-0.96
		C20.993,31.667,20.536,32.729,21.12,32.88z M174.48,34.08c0.054-0.45,0.619-1.591,0-1.92
		C174.227,32.41,173.984,33.874,174.48,34.08z M41.28,33.12c0.065-0.327-0.148-0.937-0.24-0.48
		C40.975,32.967,41.188,33.577,41.28,33.12z M175.2,33.84C175.199,35.443,175.542,30.405,175.2,33.84L175.2,33.84z M20.64,34.08
		c1.301-0.059,2.188-0.531,2.64-1.44C21.907,32.627,21.261,33.341,20.64,34.08z M204.48,34.32c0.93-0.11,1.459-0.621,1.44-1.68
		C205.295,33.007,204.012,33.618,204.48,34.32z M121.92,49.92C122.109,51.403,123.736,49.775,121.92,49.92L121.92,49.92z
		 M88.32,42.96c2.165,1.481,3.124,3.728,5.28,4.8c0.564,0.281,1.47,0.245,2.16,0.48c0.656,0.223,1.313,0.803,1.92,0.96
		c5.555,1.435,11.193-0.062,17.04-0.48c1.604-0.114,3.455-0.231,5.04,0c2.06,0.302,3.464,1.995,5.52,1.2
		c-0.925-3.943,1.98-5.401,5.28-6.24c5.124-1.301,13.267-0.078,17.28,1.44c0.12-1.252-1.509-1.335-2.641-1.68
		c-4.294-1.312-10.301-1.669-14.399-0.721c-2.995,0.693-5.271,1.703-6.48,3.36c-0.473,0.567,0.067,2.146-0.479,2.64
		c-6.596-3.332-14.245,0.435-20.88,0.24c-1.811-0.053-4.239-0.919-5.28-1.2c-0.835-0.226-1.615-0.029-2.16-0.24
		c-0.958-0.369-2.138-1.394-3.12-2.159c-2.467-1.924-3.413-3.123-4.8-5.761c0.437-1.358-0.687-2.349-0.96-3.359
		c-0.259-0.956,0.321-2.199-0.72-2.88C85.535,36.8,87.413,40.016,88.32,42.96z M16.8,34.56c0.512,0.516,1.307,0.089,1.44-0.48
		c-0.738,0.179-0.461-0.659-1.2-0.48C17.094,34.054,16.77,34.129,16.8,34.56z M198,33.6c-0.213-0.185-0.686,0.147-0.721,0.24
		C196.936,34.757,198.475,34.013,198,33.6z M154.56,53.52c-0.396-0.003-0.135-0.665-0.48-0.72c0.256,0.978-0.173,1.396,0.24,2.4
		c0.904-0.185,1.147,0.293,1.92,0.24c0.536-0.036-0.312-0.605,0-1.2c1.985-1.192,6.028-1.381,7.681,0.24
		c4.946,0.957,9.445,3.856,14.88,4.319c3.418,0.291,6.875-0.593,10.56-1.2c0.739-0.179,0.461,0.659,1.2,0.48
		c0.616-0.904,2.012-1.028,2.88-1.68c-0.499-0.135-0.509-0.375-0.24-0.721c2.29-0.978,4.494-2.453,6.24-4.08
		c3.035-2.827,5.526-6.417,6.48-11.279c0.893,0.252,0.47-0.81,0.96-0.96c-0.356-1.645,0.784-4.785-0.721-5.28
		c0.248,2.799-0.787,3.86-1.199,5.76c-0.552,2.535-0.843,3.324-1.921,5.28c-4.31,7.821-14.179,13.764-25.92,12
		c-1.104-0.166-2.164,0.066-3.119-0.24c-0.684-0.219-1.41-0.973-2.16-1.2c-0.359-0.108-0.853,0.136-1.2,0
		c-3.217-1.251-6.313-3.274-9.601-3.6c-1.518-0.15-2.975,0.051-4.56,0.479c-0.42,0.46-0.282,1.479-1.2,1.44
		c0.281-4.176-3.487-6.232-6.24-8.16C151.073,48.048,154.606,50.032,154.56,53.52z M207.84,36.72c0.008-1.048,0.088-2.168-0.48-2.64
		C207.509,34.971,206.97,36.55,207.84,36.72z M34.56,37.92c0.015-0.465,0.066-3.648-1.2-2.88c0.966,0.328,0.846,2.016,0,1.68
		C34.314,36.566,33.704,37.976,34.56,37.92z M23.28,37.92c0.477,0.003,0.305,0.655,0.96,0.48c0.083-0.878,0.808-1.113,0.72-2.16
		c-0.32,0-0.64,0-0.96,0C23.861,36.901,23.402,37.242,23.28,37.92z M22.56,36.72C20.722,37.508,23.33,36.39,22.56,36.72L22.56,36.72
		z M209.28,37.92c0.36-0.559,0.587-0.366,1.2-0.24c-0.149-0.73-0.533-1.227-1.44-1.2C209.178,36.902,208.75,37.89,209.28,37.92z
		 M18.24,39.12c0.454,0.026,0.167,0.793,0.72,0.72c0.445-0.695,1.602-2.058,0.72-2.64C19.563,38.203,18.589,38.35,18.24,39.12z
		 M23.28,43.2c-1.089-1.32-2.466-3.521-0.72-5.04C19.425,37.607,20.725,43.311,23.28,43.2z M17.04,39.84c0.7,0.353,0.7-1.072,0-0.72
		C17.04,39.36,17.04,39.6,17.04,39.84z M137.76,44.16c0.16,0,0.319,0,0.479,0c0-0.16,0-0.32,0-0.48c-0.16,0-0.319,0-0.479,0
		C137.76,43.84,137.76,44,137.76,44.16z M142.32,44.16c-0.497,0.143-1.576-0.297-1.68,0.24
		C141.164,44.527,142.192,44.98,142.32,44.16z M90.24,48.48c-0.106-1.174,0.348-2.908-0.72-3.12
		C89.324,45.986,89.38,48.14,90.24,48.48z M139.44,45.6c-0.748,0.771,0.061,1.099,0,2.4c-0.523,0.153-0.764-0.681-0.72,0.24
		c0.753,1.061,2.01,0.682,3.359,0.96c0.471,0.097,0.729,0.551,1.2,0.72c2.354,0.844,5.096,1.045,6.96,2.4
		c0.338-1.374-0.041-2.213-0.96-2.88c0.754-0.121,0.98,0.565,1.2-0.24C147.224,47.354,144.243,45.288,139.44,45.6z M135.84,46.32
		c0.16,0,0.319,0,0.479,0c0-0.16,0-0.32,0-0.48c-0.16,0-0.319,0-0.479,0C135.84,46,135.84,46.16,135.84,46.32z M91.2,49.92
		c0.077-0.406,0.35-3.062-0.48-3.36C90.755,47.296,90.488,49.589,91.2,49.92z M131.52,47.52c0.16,0,0.32,0,0.48,0
		c0.268-0.345,0.258-0.585-0.24-0.72C131.747,47.106,131.453,47.133,131.52,47.52z M135.84,47.76c0.239,0,0.479,0,0.72,0
		c-0.055-0.425,0.242-1.201-0.48-0.96C136.004,47.125,135.739,47.259,135.84,47.76z M98.88,55.44c2.609,0.401,0.61-2.327,2.16-2.881
		c-0.175-0.785-0.862-1.058-1.44-1.439c-0.397,0.302,0.692,3.838-0.72,2.399C98.88,54.16,98.88,54.8,98.88,55.44z M97.44,54.72
		c1.112-0.075,0.797-0.999,1.92-1.439c0.039-0.759,0.009-1.449-0.48-1.681c-0.131,0.35,0.281,1.241-0.24,1.2
		c-0.286-0.973-0.41-1.022-1.2-0.479c0-0.641,0-1.28,0-1.92c-2.002-0.718-4.165-1.275-5.52-2.641c-0.753,0.78,0.514,2.101-0.24,2.88
		C92.973,51.852,95.412,54.856,97.44,54.72z M206.16,49.92c-0.106-0.453,0.327-1.446-0.479-1.2
		C205.645,49.315,205.635,49.885,206.16,49.92z M137.52,49.44c-0.892,0.238-0.628,0.512-1.68,0.239
		C135.696,50.185,137.622,50.524,137.52,49.44z M132.24,50.64c0.638-0.162,1.223-0.378,1.681-0.72
		C133.063,49.448,132.603,49.995,132.24,50.64z M102.48,50.64c-0.135-0.756-2.354-0.671-2.64-0.479
		C100.472,50.568,101.896,50.184,102.48,50.64z M123.36,50.88c0.839,0.476,2.475,0.004,2.88-0.72
		C125.207,50.326,123.81,50.13,123.36,50.88z M128.88,50.64c-0.183,1.098-1.327,1.233-1.92,1.92c1.785,0.058,3.266-1.491,5.04-2.159
		C130.657,49.805,130.452,50.858,128.88,50.64z M117.6,52.56c0.539-0.678,0.073,1.671,0.96,1.44c-0.283-1.673,0.403-2.827-0.72-3.6
		C117.882,51.098,116.997,52.096,117.6,52.56z M120,53.28c0.008-1.049,0.088-2.169-0.48-2.641
		C119.579,51.622,119.287,52.954,120,53.28z M205.2,51.36c0.7,0.353,0.7-1.073,0-0.721C205.2,50.88,205.2,51.12,205.2,51.36z
		 M95.76,55.2c-0.921-2.119-3.814-2.267-4.8-4.32c-0.282,0.038-0.681-0.041-0.72,0.24C92,52.56,93.691,54.068,95.76,55.2z
		 M102,51.84c0-0.16,0-0.32,0-0.479C101.557,50.562,100.83,52.08,102,51.84z M103.2,51.84c0.013-0.413-0.185-0.615-0.48-0.72
		C102.376,51.471,102.367,52.05,103.2,51.84z M121.44,54.48c0.01-0.51,0.352-3.159-0.72-3.36
		C120.599,52.601,120.83,53.73,121.44,54.48z M152.64,52.32c0.22-0.876-1.169-1.37-1.44-0.96
		C151.851,51.51,151.797,52.362,152.64,52.32z M122.64,54.96c1.194-0.176,0.524-2.956-0.24-3.36
		C121.895,52.468,122.885,53.586,122.64,54.96z M101.52,52.8c0.24,0,0.48,0,0.72,0c0.044-0.523-0.196-0.764-0.72-0.72
		C101.52,52.32,101.52,52.56,101.52,52.8z M124.8,55.44c0.628-0.801-0.342-2.05,0-3.36c-0.24,0-0.48,0-0.721,0
		C123.859,52.802,123.85,55.117,124.8,55.44z M152.16,53.28c-0.621-0.259-0.892-0.868-1.68-0.96
		C150.667,52.866,151.601,53.9,152.16,53.28z M104.4,54.72c-0.173-0.733,0.246-0.874,0.24-1.439
		C103.269,52.785,102.938,55.072,104.4,54.72z M149.52,53.76c0.24,0,0.48,0,0.72,0c0.031-0.431-0.238-0.562-0.72-0.479
		C149.52,53.44,149.52,53.6,149.52,53.76z M107.76,54c-0.165,0.805,0.402,0.877,0.96,0.96c-0.275-0.755,0.376-0.583,0.48-0.96
		C108.639,53.926,108.208,53.53,107.76,54z M150.48,54.24c0.307,0.013,0.332,0.308,0.72,0.24c0.013-0.413-0.185-0.615-0.479-0.721
		C150.721,54.001,150.526,54.046,150.48,54.24z M106.8,54.72c0.073-0.632-0.332-0.787-0.96-0.72
		C105.644,54.859,106.351,55.191,106.8,54.72z M151.2,54.96c0.319,0.312,0.894,0.316,0.96-0.24
		C151.841,54.408,151.267,54.403,151.2,54.96z M98.16,56.16c-0.175-0.785-1.342-0.578-1.92-0.96
		C96.519,55.882,97.215,56.146,98.16,56.16z M117.84,56.16c0.605-0.627,2.207,0.632,2.399-0.72
		C119.885,55.136,117.103,55.402,117.84,56.16z M152.88,56.4c0.239,0,0.479,0,0.72,0c0.031-0.432-0.238-0.562-0.72-0.48
		C152.88,56.08,152.88,56.24,152.88,56.4z M110.64,57.36c0.062-0.499,1.055-0.065,1.2-0.48
		C111.932,55.319,109.871,56.907,110.64,57.36z M124.08,56.4c-0.205,0.766,0.378,0.742,0.48,1.199
		c0.897-0.143,1.704-0.375,1.68-1.439C125.642,56.362,124.955,56.475,124.08,56.4z M108.96,56.4c-1.215-0.256-1.21,0.709-1.92,0.96
		c0-0.24,0-0.48,0-0.721c-1.391,0.914-2.466-0.69-3.12,0.96C105.087,57.228,108.117,58.576,108.96,56.4z M109.2,57.12
		c0.32,0,0.64,0,0.96,0C110.349,56.196,109.011,56.196,109.2,57.12z M156,60.48c0.411-0.9,0.47-3.505-0.24-4.08
		c-0.24,0-0.48,0-0.721,0C155.227,57.894,154.742,60.059,156,60.48z M102.72,57.36c0.413,0.013,0.615-0.186,0.72-0.48
		C103.063,56.903,102.608,56.848,102.72,57.36z M101.52,57.84c-0.904-0.216-1.679-0.561-2.64-0.72
		C99.058,57.947,101.163,58.707,101.52,57.84z M167.76,57.84c0.088,0.809-1.01,0.432-0.96,1.2c0.945,0.015,1.642,0.278,1.92,0.96
		c-0.734,0.174-0.706-0.414-1.44-0.24c-0.28,1.24,1.669,0.252,1.681,1.2c-0.716,0.064-1.462-0.672-1.681,0.24
		c0.407,0.473,1.67,0.09,1.681,0.96c-0.561-0.073-1.034-0.513-1.2,0.24c1.452,0.308,2.477,1.043,4.08,1.199
		c-0.097-1.189-0.601-3.231,0-4.319c1.228,0.132,0.896,1.823,0.96,3.12c0.97,0.47,2.898-0.019,2.88,1.439
		c-0.634,0.767-1.986-0.592-2.641,0.24c3.477,0.793,7.144,1.384,9.601,0.72c-0.695-1.265-0.368-2.724-0.24-4.319
		C177.027,61.039,172.218,58.204,167.76,57.84z M179.04,59.04C177.502,58.763,178.513,59.773,179.04,59.04L179.04,59.04z
		 M197.76,60.72c0.761,0.183,1.439-0.935,0.96-1.2C198.558,60.078,197.46,59.701,197.76,60.72z M184.08,60.96c0.32,0,0.641,0,0.96,0
		C185.229,60.036,183.891,60.036,184.08,60.96z M158.4,60.96c0.377-0.022,0.832,0.032,0.72-0.479c-0.159,0-0.319,0-0.479,0
		C158.641,60.721,158.446,60.766,158.4,60.96z M159.6,61.44c0.677,0.037,0.602-0.679,0.96-0.96
		C159.754,60.376,159.143,60.987,159.6,61.44z M160.56,61.44c0.812,0.091,1.024-0.416,1.44-0.721
		C161.452,60.2,160.502,60.633,160.56,61.44z M183.6,60.72c-0.324-0.075-0.459-0.342-0.96-0.239
		C182.459,61.299,183.557,61.416,183.6,60.72z M197.52,61.92c0.035-0.596,0.045-1.165-0.48-1.2
		C196.547,61.106,196.39,62.017,197.52,61.92z M154.56,61.68c0.302,0.099,0.49,0.31,0.479,0.721c0.806,0.005,1.601,0,1.44-0.96
		C155.645,62.173,155.089,60.458,154.56,61.68z M162.72,61.92c0.628,0.067,1.032-0.088,0.96-0.72
		C163.08,61.159,162.928,61.568,162.72,61.92z M183.6,62.88c-0.004-0.636,0.133-1.413-0.48-1.439
		C182.75,61.806,182.693,63.086,183.6,62.88z M185.04,61.68c-0.081-0.193-0.637-0.289-0.72,0
		C184.161,62.236,185.257,62.199,185.04,61.68z M163.92,62.4c0.494,0.21,1.077-0.623,0.479-0.721
		C164.378,62.059,163.788,61.868,163.92,62.4z M166.8,62.64c-0.651-0.094-0.897-0.1-1.44-0.72c-0.021,0.378-0.612,0.188-0.479,0.72
		C166.021,62.391,166.195,63.62,166.8,62.64z M171.84,65.28c0.377-0.023,0.832,0.032,0.72-0.48c-0.16,0-0.32,0-0.48,0
		C172.081,65.041,171.885,65.086,171.84,65.28z M173.52,65.04C172.286,65.62,174.346,65.66,173.52,65.04L173.52,65.04z M186,66.24
		c1.108-0.971,2.433,0.771,2.88-1.2c-0.989,0.27-0.901,0.531-1.681,0C186.84,65.48,186.199,65.639,186,66.24z M182.88,66.72
		c0.702,0.062,0.737-0.542,1.439-0.479C184.281,64.868,182.834,65.91,182.88,66.72z M181.68,66.96c0.239-0.32,0.648-0.472,0.72-0.96
		C181.659,65.687,181.039,66.681,181.68,66.96z"/>
	<path fill-rule="evenodd" clip-rule="evenodd" d="M131.76,27.6c1.428,0.667-0.04,3.495-0.24,4.8
		C130.888,31.002,132.651,29.34,131.76,27.6z"/>
	<path fill-rule="evenodd" clip-rule="evenodd" d="M133.44,32.16c1.106,0.146-0.143-2.062,1.2-1.68
		c0.142,1.022-0.173,1.587-0.24,2.4c-0.744,0.024-1.146-0.293-1.68-0.48c0.591-1.344-0.226-2.735,0.479-4.08
		c0.167-0.458,0.374,0.259,0,0.24C133.056,29.983,133.621,30.699,133.44,32.16z"/>
	<path fill-rule="evenodd" clip-rule="evenodd" d="M14.16,32.64c-0.719,0.158,0.229,0.513,0,0.96c-1.371-1.174-3.663,1.239-2.4,2.64
		c-0.521,0.884-0.534-0.719-1.2-0.48c-0.505-2.265,0.685-2.834,2.4-2.88c0.444-0.036,0.147-0.812,0.48-0.96
		c1.232,0.048,1.611,0.949,2.4,1.44c-0.152,0.888-0.651,1.429-0.48,2.64c-0.691,0.108-0.75,0.849-1.68,0.72
		c1.045-1.141,0.327-2.833,1.44-3.6C14.962,32.798,14.607,32.673,14.16,32.64z"/>
	<path fill-rule="evenodd" clip-rule="evenodd" d="M146.4,37.92c1.26,0.141,1.817-0.423,3.12-0.24
		c0.446-1.349-1.178-2.212-1.68-3.36c1.739-0.695,1.241,2.916,2.88,3.121c1.286-0.999-1.817-2.499-1.2-3.601
		c1.661,0.499,1.35,2.97,2.64,3.84c0.388,0.068,0.413-0.227,0.721-0.239c0.228-1.508-1.188-1.373-0.96-2.88
		c1.297,0.382,1.21,2.149,1.68,3.36c0.557,0.076,0.921-0.038,1.2-0.24c-0.142-1.378-1.271-1.769-1.44-3.12
		c2.202,0.438,0.771,4.51,3.84,4.08c-0.055-1.291-1.613-2.135-1.199-3.12c1.126,0.634,1.56,1.959,1.68,3.6
		c1.664,1.216,2.83,2.93,3.84,4.8c0.541,4.317-6.229,5.751-6.96,2.16c-0.239-1.175,0.643-1.427,0.479-2.88
		c0.421,0.587,1.448,0.566,2.16,0.24c0.817,0.832,0.389,1.968,0.96,2.64c0.172,0.651-1.132-0.172-0.96,0.479
		c0.685,0.669,1.972-0.096,2.16-0.72c-0.529-1.87-1.511-3.289-2.399-4.8c-2.057-0.264-3.385-1.256-6-0.96
		c-0.705,0.204,0.312,0.604,0,1.2c-0.501-0.38-0.471-1.29-1.44-1.2c-0.75,1.079,0.898,1.813,0.96,2.88
		c-1.289-0.311-1.061-2.14-2.16-2.64c-1.263,0.41,0.769,1.521,0,2.16c-0.483-0.637-0.894-1.347-1.2-2.16
		c-0.349-0.132-1.24,0.28-1.199-0.24c-0.908,0.149,0.259,1.003-0.96,0.96c-1.387-2.854-2.675-5.806-4.08-8.64
		c1.405-0.206,0.642,1.758,1.92,1.68c0.874-0.5-0.129-1.394,0.72-1.92c2.452,0.269,4.346,0.697,3.84,4.08
		c-0.339-0.363-1.166-0.758-1.68-0.24C145.713,36.847,146.367,37.073,146.4,37.92z M143.76,36c0.513,0.767,1.225,1.335,2.16,1.68
		C146.115,36.354,144.352,35.01,143.76,36z M159.12,44.16c-0.005-0.716,0.022-1.463-0.72-1.44
		C158.388,43.452,158.618,43.942,159.12,44.16z"/>
	<path fill-rule="evenodd" clip-rule="evenodd" d="M140.4,34.32c-1.175,1.636,2.104,3.834,1.44,5.76
		c-1.287-1.314-1.797-4.481-2.88-6.24c0.264-0.616,0.923-0.836,1.439-1.2c0.304,0.656,0.38,1.54,0.72,2.16
		C140.879,35.541,140.724,34.279,140.4,34.32z"/>
	<path fill-rule="evenodd" clip-rule="evenodd" d="M134.4,34.08c1.354,0.023,1.894,3.545,2.88,4.8
		C136.092,39.036,135.776,35.122,134.4,34.08z"/>
	<path fill-rule="evenodd" clip-rule="evenodd" d="M136.56,35.04c1.178-0.293,1.123,2.713,2.16,3.36
		C137.468,38.767,137.675,35.608,136.56,35.04z"/>
	<path fill-rule="evenodd" clip-rule="evenodd" d="M160.08,38.64c-0.804,1.372,1.126,2.069,1.2,3.36
		c-1.264-1.296-2.175-2.944-2.88-4.8c1.056,0.089,0.877,1.781,2.16,0.96c0.439,1.161,1.118,2.081,1.68,3.12
		C161.042,40.877,160.92,39.399,160.08,38.64z"/>
	<path fill-rule="evenodd" clip-rule="evenodd" d="M110.16,38.16c0.895,0.219,0.709,1.482,0.96,2.16
		c0.613,1.657,1.678,3.088,1.919,4.319c-0.692,0.05-0.47-0.522-0.72-0.96C111.386,42.043,110.413,39.568,110.16,38.16z"/>
	<path fill-rule="evenodd" clip-rule="evenodd" d="M115.44,38.16c1.192,0.24,1.216,1.941,1.68,2.88
		c0.551,1.112,1.635,1.948,1.44,2.88c-0.971-0.594-1.188-1.94-1.68-2.88C116.392,40.109,115.587,39.232,115.44,38.16z"/>
	<path fill-rule="evenodd" clip-rule="evenodd" d="M8.88,39.6c1.094-0.368,2.196,1.32,3.6,1.44
		C11.264,41.53,10.009,39.995,8.88,39.6z"/>
	<path fill-rule="evenodd" clip-rule="evenodd" d="M108.96,40.08c0.835-0.188,1.046,2.309,1.68,3.12
		C109.7,42.54,109.696,40.944,108.96,40.08z"/>
	<path fill-rule="evenodd" clip-rule="evenodd" d="M163.68,40.56c1.187,0.124,0.83,1.219,1.2,1.921c0.85,1.614,2.069,3.338,3.12,4.8
		c0.946,1.317,2.599,2.29,2.64,3.84c-1.196-0.28-1.353-1.559-1.92-2.4c-1.453-2.153-3.317-3.856-4.08-6.72
		C164.239,41.602,163.668,41.372,163.68,40.56z"/>
	<path fill-rule="evenodd" clip-rule="evenodd" d="M106.08,41.76c0.669-0.261,1.073,1.801,1.92,2.16
		C106.904,44.606,106.662,42.385,106.08,41.76z"/>
	<path fill-rule="evenodd" clip-rule="evenodd" d="M162.24,42c1.969,0.731,3.991,4.756,5.521,7.2c0.379,0.605,1.446,0.912,0.96,1.68
		c-1.069-0.206-1.026-1.477-1.44-2.16c-0.816-1.349-2.015-2.415-2.64-3.84C163.703,44.058,162.982,43.018,162.24,42z"/>
	<path fill-rule="evenodd" clip-rule="evenodd" d="M166.32,42.48c0.837,0.282,0.609,1.63,1.681,1.68
		c0.528,2.211,2.83,3.862,3.119,5.52C169.606,47.193,167.356,45.443,166.32,42.48z"/>
	<path fill-rule="evenodd" clip-rule="evenodd" d="M162,43.2c1.235,0.764,1.482,2.517,2.64,3.359
		C163.906,46.25,162.274,44.77,162,43.2z"/>
	<path fill-rule="evenodd" clip-rule="evenodd" d="M194.64,44.16c0.788,0.972,1.823,1.696,2.399,2.88
		C195.601,46.719,195.198,45.362,194.64,44.16z"/>
	<path fill-rule="evenodd" clip-rule="evenodd" d="M192.48,46.32c0.789,0.491,1.249,1.311,1.68,2.16
		C193.551,47.809,192.718,47.361,192.48,46.32z"/>
	<path fill-rule="evenodd" clip-rule="evenodd" d="M181.68,48.96c1.013-0.048,2.282,1.714,2.88,2.88
		C182.826,51.654,182.767,49.793,181.68,48.96z"/>
</g>
</svg>
